<svg xmlns="http://www.w3.org/2000/svg" xmlns:xlink="http://www.w3.org/1999/xlink" viewBox="0 0 333.7 25.85"><defs><style>.a{fill:none;}.b{fill:#c36700;}.c{fill:#ffe5a4;}.d{clip-path:url(#a);}.e{fill:#f8bd00;}.f{fill:#f8bc00;}.g{fill:#f8bb00;}.h{fill:#f8ba00;}.i{fill:#f7b900;}.j{fill:#f7b800;}.k{fill:#f7b700;}.l{fill:#f7b600;}.m{fill:#f7b500;}.n{fill:#f6b400;}.o{fill:#f6b300;}.p{fill:#f6b200;}.q{fill:#f6b100;}.r{fill:#f6b000;}.s{fill:#f6af00;}.t{fill:#f5ae00;}.u{fill:#f5ad00;}.v{fill:#f5ac00;}.w{fill:#f5ab00;}.x{fill:#f5aa00;}.y{fill:#f4a800;}.z{fill:#f4a700;}.aa{fill:#f4a600;}.ab{fill:#f4a500;}.ac{fill:#f4a400;}.ad{fill:#f3a300;}.ae{fill:#f3a200;}.af{fill:#f3a100;}.ag{fill:#f3a000;}.ah{fill:#f39e00;}.ai{fill:#f29d00;}.aj{fill:#f29c00;}.ak{fill:#f29b00;}.al{fill:#f29a00;}.am{fill:#f29900;}.an{fill:#f19700;}.ao{fill:#f19600;}.ap{fill:#f19500;}.aq{clip-path:url(#b);}.ar{fill:#f19800;}.as{fill:#f39f00;}.at{clip-path:url(#c);}.au{fill:#183664;}.av{fill:#193765;}.aw{fill:#1a3866;}.ax{fill:#1c3968;}.ay{fill:#1d3b69;}.az{fill:#1e3c6a;}.ba{fill:#1f3d6b;}.bb{fill:#203e6d;}.bc{fill:#223f6e;}.bd{fill:#23406f;}.be{fill:#244270;}.bf{fill:#254372;}.bg{fill:#264473;}.bh{fill:#274574;}.bi{fill:#294675;}.bj{fill:#2a4776;}.bk{fill:#2b4878;}.bl{fill:#2c4a79;}.bm{fill:#2d4b7a;}.bn{fill:#2e4c7b;}.bo{fill:#304d7c;}.bp{fill:#314e7e;}.bq{fill:#324f7f;}.br{fill:#335080;}.bs{fill:#345181;}.bt{fill:#355282;}.bu{fill:#375484;}.bv{fill:#385585;}.bw{fill:#395686;}.bx{fill:#3a5787;}.by{fill:#3b5888;}.bz{fill:#3c5989;}.ca{fill:#3d5a8b;}.cb{fill:#3e5b8c;}.cc{fill:#405c8d;}.cd{fill:#415d8e;}.ce{fill:#425e8f;}.cf{fill:#436090;}.cg{fill:#446191;}.ch{fill:#456293;}.ci{fill:#466394;}.cj{fill:#476495;}.ck{fill:#486596;}.cl{fill:#4a6697;}.cm{fill:#4b6798;}.cn{fill:#4c6899;}.co{fill:#4d699b;}.cp{fill:#4e6a9c;}.cq{fill:#4f6b9d;}.cr{fill:#506c9e;}.cs{fill:#516d9f;}.ct{fill:#526ea0;}.cu{fill:#536fa1;}.cv{fill:#5470a2;}.cw{fill:#5571a3;}.cx{fill:#5672a4;}.cy{fill:#5773a6;}.cz{fill:#5974a7;}.da{fill:#5a75a8;}.db{fill:#5b76a9;}.dc{fill:#5c77aa;}.dd{fill:#5d78ab;}.de{fill:#5e79ac;}.df{fill:#5f7aad;}.dg{fill:#607bae;}.dh{fill:#617caf;}.di{fill:#627db0;}.dj{fill:#637eb1;}.dk{fill:#647fb2;}.dl{fill:#6580b3;}.dm{fill:#6681b4;}.dn{fill:#6782b5;}.do{fill:#6883b6;}.dp{fill:#6984b7;}.dq{fill:#6a85b8;}.dr{fill:#6b86b9;}.ds{fill:#6c87ba;}.dt{fill:#6d88bb;}.du{fill:#6e89bc;}.dv{fill:#6f8abd;}.dw{fill:#708bbe;}.dx{fill:#718cbf;}.dy{fill:#718dc0;}.dz{fill:#728dc1;}.ea{fill:#738ec2;}.eb{fill:#748fc3;}.ec{fill:#7590c4;}.ed{fill:#7691c5;}.ee{fill:#7792c6;}.ef{fill:#7893c7;}.eg{fill:#7994c8;}.eh{fill:#7a95c9;}.ei{fill:#7b95ca;}.ej{fill:#7b96cb;}.ek{fill:#7c97cc;}.el{fill:#7d98cd;}.em{fill:#7e99cd;}.en{fill:#7f9ace;}.eo{fill:#809acf;}.ep{fill:#819bd0;}.eq{fill:#819cd1;}.er{fill:#829dd2;}.es{fill:#839ed3;}.et{fill:#849ed3;}.eu{fill:#859fd4;}.ev{fill:#86a0d5;}.ew{fill:#86a1d6;}.ex{fill:#87a1d7;}.ey{fill:#88a2d8;}.ez{fill:#89a3d8;}.fa{fill:#89a4d9;}.fb{fill:#8aa4da;}.fc{fill:#8ba5db;}.fd{fill:#8ca6db;}.fe{fill:#8ca6dc;}.ff{fill:#8da7dd;}.fg{fill:#8ea8dd;}.fh{fill:#8ea8de;}.fi{fill:#8fa9df;}.fj{fill:#90aadf;}.fk{fill:#90aae0;}.fl{fill:#91abe1;}.fm{fill:#92ace2;}.fn{fill:#93ade3;}.fo{fill:#94ade3;}.fp{fill:#94aee3;}.fq{fill:#95aee4;}.fr{fill:#95afe4;}.fs{fill:#96afe4;}.ft{fill:#97b0e4;}.fu{fill:#98b1e4;}.fv{fill:#98b1e5;}.fw{fill:#99b2e5;}.fx{fill:#9ab2e5;}.fy{fill:#9bb3e5;}.fz{fill:#9cb4e6;}.ga{fill:#9db5e6;}.gb{fill:#9eb5e6;}.gc{fill:#9fb6e6;}.gd{fill:#9fb7e7;}.ge{fill:#a0b7e7;}.gf{fill:#a1b8e7;}.gg{fill:#a2b9e7;}.gh{fill:#a3bae8;}.gi{fill:#a4bbe8;}.gj{fill:#a5bbe8;}.gk{fill:#a7bce9;}.gl{fill:#a8bde9;}.gm{fill:#a9bee9;}.gn{fill:#aabfea;}.go{fill:#abc0ea;}.gp{fill:#acc1ea;}.gq{fill:#aec2eb;}.gr{fill:#afc3eb;}.gs{fill:#b0c4eb;}.gt{fill:#b2c5ec;}.gu{fill:#b3c6ec;}.gv{fill:#b4c7ed;}.gw{fill:#b6c8ed;}.gx{fill:#b7c9ed;}.gy{fill:#b9caee;}.gz{fill:#baccee;}.ha{fill:#bccdef;}.hb{fill:#bdceef;}.hc{fill:#bfcff0;}.hd{fill:#c0d0f0;}.he{fill:#c2d2f1;}.hf{fill:#c4d3f1;}.hg{fill:#c5d4f2;}.hh{fill:#c7d6f2;}.hi{fill:#c9d7f2;}.hj{fill:#cad8f3;}.hk{fill:#ccdaf3;}.hl{fill:#cedbf4;}.hm{clip-path:url(#d);}.hn{fill:#183663;}.ho{fill:#183563;}.hp{fill:#173563;}.hq{fill:#173562;}.hr{fill:#173461;}.hs{fill:#163460;}.ht{fill:#16335f;}.hu{fill:#15335e;}.hv{fill:#15325d;}.hw{fill:#15325c;}.hx{fill:#14315c;}.hy{fill:#14315b;}.hz{fill:#13305a;}.ia{fill:#133059;}.ib{fill:#132f58;}.ic{fill:#122f57;}.id{fill:#122e56;}.ie{fill:#112d55;}.if{fill:#112d54;}.ig{fill:#102c53;}.ih{fill:#102c52;}.ii{fill:#0f2b51;}.ij{fill:#0f2a50;}.ik{fill:#0e294e;}.il{fill:#0d294d;}.im{fill:#0d284c;}.in{fill:#0c274b;}.io{fill:#0c2749;}.ip{fill:#0b2648;}.iq{fill:#0a2546;}.ir{fill:#0a2445;}.is{fill:#092344;}.it{fill:#082242;}.iu{fill:#082241;}.iv{fill:#07213f;}.iw{fill:#06203d;}.ix{fill:#051f3c;}.iy{fill:#051e3a;}.iz{fill:#041d39;}.ja{fill:#031c37;}.jb{fill:#021b35;}.jc{fill:#021a34;}.jd{fill:#011932;}.je{fill:#001830;}.jf{clip-path:url(#e);}.jg{clip-path:url(#f);}.jh{clip-path:url(#g);}.ji{fill:#fdfdff;}</style><clipPath id="a" transform="translate(-45.03 -80.08)"><path class="a" d="M68.62,93.54a8.68,8.68,0,0,1-2.24,5,3.13,3.13,0,0,0-.19-.61h0a7.52,7.52,0,0,0-1.37-1.24l-.14-.09h0a1.74,1.74,0,0,0-.26-.15h0a4.89,4.89,0,0,0-1.2-.46c-2.4-.63-3.72-.34-5.76-.56a11,11,0,0,1-5.29-1.69L52,93.62a3.35,3.35,0,0,1-.36-.21l-.19-.12a3.06,3.06,0,0,1-.29-.22h0c0-.14,0-.28,0-.42a7.14,7.14,0,0,1,0-.8,8.67,8.67,0,0,1,2.22-5.07,1.67,1.67,0,0,0,0,.39,3.17,3.17,0,0,0,.21.65A6.78,6.78,0,0,0,55,89.05l.14.1h0l.26.15h0a4.8,4.8,0,0,0,1.21.46c2.39.63,3.71.33,5.75.55A11.19,11.19,0,0,1,67.64,92l.17.12h0a7.94,7.94,0,0,1,.75.68c0,.08,0,.16,0,.24S68.61,93.37,68.62,93.54Z"/></clipPath><clipPath id="b" transform="translate(-45.03 -80.08)"><path class="a" d="M75,96.27l0,.19a.76.76,0,0,1-1.38.17l-.09-.25A7.78,7.78,0,0,0,71,93.32a14.4,14.4,0,0,0-2.28-1.46,22.21,22.21,0,0,0-6.52-2.17,24.76,24.76,0,0,0-4.29-.36h-.33a3.06,3.06,0,0,1-3-3.06h0a4.05,4.05,0,0,1,.12-.85l.06-.21c1-3.49,5.93-5.13,11-3.66a11.87,11.87,0,0,1,6,3.83A12.36,12.36,0,0,1,74.62,91,14.08,14.08,0,0,1,75,96.27Z"/></clipPath><clipPath id="c" transform="translate(-45.03 -80.08)"><path class="a" d="M74.48,95.65l0,0a.77.77,0,0,1-.25-.18,1.42,1.42,0,0,0-.05-.16h0a7.58,7.58,0,0,0-2.4-3.1,15.94,15.94,0,0,0-3.58-2.15,23.06,23.06,0,0,0-5-1.54,23.37,23.37,0,0,0-4.15-.4c-.31,0-.61,0-.91,0A2.48,2.48,0,0,1,56,85.84h0a.49.49,0,0,1,0-.12,2.48,2.48,0,0,1,.11-.73h0a2.47,2.47,0,0,1,.51-.69,4.6,4.6,0,0,1,.45-.54c1.86-1.81,5.38-2.45,9-1.41a10.16,10.16,0,0,1,6.47,5,16.7,16.7,0,0,1,2,8.35Z"/></clipPath><clipPath id="d" transform="translate(-45.03 -80.08)"><ellipse class="a" cx="65.55" cy="86.16" rx="0.52" ry="1.77" transform="translate(-32.05 133) rotate(-78.37)"/></clipPath><clipPath id="e" transform="translate(-45.03 -80.08)"><path class="a" d="M45.24,89.73l0-.19a.76.76,0,0,1,1.38-.17l.09.25a7.78,7.78,0,0,0,2.48,3.06,14.4,14.4,0,0,0,2.28,1.46A22.21,22.21,0,0,0,58,96.31a24.76,24.76,0,0,0,4.29.36h.33a3.06,3.06,0,0,1,3,3.06h0a4.05,4.05,0,0,1-.12.85l-.06.21c-1,3.49-5.93,5.13-11,3.66a11.87,11.87,0,0,1-6-3.83A12.36,12.36,0,0,1,45.63,95,14.08,14.08,0,0,1,45.24,89.73Z"/></clipPath><clipPath id="f" transform="translate(-45.03 -80.08)"><path class="a" d="M45.77,90.35l0,0a.77.77,0,0,1,.25.18,1.42,1.42,0,0,0,0,.16h0a7.58,7.58,0,0,0,2.4,3.1,15.94,15.94,0,0,0,3.58,2.15,23.06,23.06,0,0,0,5,1.54,23.37,23.37,0,0,0,4.15.4c.31,0,.61,0,.91,0a2.48,2.48,0,0,1,2.07,2.32h0a.49.49,0,0,1,0,.12,2.48,2.48,0,0,1-.11.73h0a2.47,2.47,0,0,1-.51.69,3.79,3.79,0,0,1-.45.54c-1.86,1.81-5.38,2.45-9,1.41a10.16,10.16,0,0,1-6.47-5,16.7,16.7,0,0,1-2-8.35Z"/></clipPath><clipPath id="g" transform="translate(-45.03 -80.08)"><ellipse class="a" cx="54.7" cy="99.84" rx="0.52" ry="1.77" transform="translate(-54.12 133.3) rotate(-78.37)"/></clipPath></defs><path class="b" d="M68.63,93.92c0,.07,0,.13,0,.2a8.66,8.66,0,0,1-2.54,6,2.68,2.68,0,0,0,.31-1.5.08.08,0,0,0,0,0,3.13,3.13,0,0,0-.19-.61h0a4.9,4.9,0,0,0-1.79-2.16,4.58,4.58,0,0,0-1.63-.63c-2.42-.51-3.72-.16-5.77-.29a11.31,11.31,0,0,1-5-1.23,3.35,3.35,0,0,1-.36-.21l-.19-.12a3.06,3.06,0,0,1-.29-.22h0a4.16,4.16,0,0,1,.06-.46,9,9,0,0,1,2.41-4.79A6.78,6.78,0,0,0,55,89.05l.14.1h0l.26.15h0a4.8,4.8,0,0,0,1.21.46c2.39.63,3.71.33,5.75.55A11.19,11.19,0,0,1,67.64,92l.17.12h0a7.94,7.94,0,0,1,.75.68c0,.08,0,.16,0,.24s0,.33,0,.5S68.63,93.79,68.63,93.92Z" transform="translate(-45.03 -80.08)"/><path class="c" d="M68.58,93a8.59,8.59,0,0,1-.8,2.62,8.78,8.78,0,0,1-1.59,2.27h0a7.52,7.52,0,0,0-1.37-1.24l-.14-.09h0a1.74,1.74,0,0,0-.26-.15h0a4.89,4.89,0,0,0-1.2-.46c-2.4-.63-3.72-.34-5.76-.56a11,11,0,0,1-5.29-1.69L52,93.62a5.74,5.74,0,0,1-.74-.67c0-.11,0-.23,0-.34s0-.5,0-.76v-.22a8.66,8.66,0,0,1,2.54-6,3.1,3.1,0,0,0-.32,1.11,1.67,1.67,0,0,0,0,.39,3.17,3.17,0,0,0,.21.65A4.91,4.91,0,0,0,55.41,90,4.43,4.43,0,0,0,57,90.6c2.43.52,3.73.17,5.78.3a11.4,11.4,0,0,1,5,1.22h0a7.94,7.94,0,0,1,.75.68C68.57,92.88,68.57,93,68.58,93Z" transform="translate(-45.03 -80.08)"/><g class="d"><path class="e" d="M51.15,86.78v0Z" transform="translate(-45.03 -80.08)"/><rect class="e" x="6.12" y="6.71" width="0.43" height="11.76"/><rect class="f" x="6.55" y="6.71" width="0.43" height="11.76"/><rect class="f" x="6.99" y="6.71" width="0.43" height="11.76"/><rect class="g" x="7.42" y="6.71" width="0.43" height="11.76"/><rect class="h" x="7.86" y="6.71" width="0.43" height="11.76"/><rect class="i" x="8.29" y="6.71" width="0.43" height="11.76"/><rect class="j" x="8.73" y="6.71" width="0.43" height="11.76"/><rect class="j" x="9.16" y="6.71" width="0.43" height="11.76"/><rect class="k" x="9.59" y="6.71" width="0.43" height="11.76"/><rect class="l" x="10.03" y="6.71" width="0.43" height="11.76"/><rect class="m" x="10.46" y="6.71" width="0.43" height="11.76"/><rect class="n" x="10.9" y="6.71" width="0.43" height="11.76"/><rect class="o" x="11.33" y="6.71" width="0.43" height="11.76"/><rect class="p" x="11.76" y="6.71" width="0.43" height="11.76"/><rect class="q" x="12.2" y="6.71" width="0.43" height="11.76"/><rect class="r" x="12.63" y="6.71" width="0.43" height="11.76"/><rect class="s" x="13.07" y="6.71" width="0.43" height="11.76"/><rect class="t" x="13.5" y="6.71" width="0.43" height="11.76"/><rect class="u" x="13.94" y="6.71" width="0.43" height="11.76"/><rect class="v" x="14.37" y="6.71" width="0.43" height="11.76"/><rect class="w" x="14.8" y="6.71" width="0.43" height="11.76"/><rect class="x" x="15.24" y="6.71" width="0.43" height="11.76"/><rect class="y" x="15.67" y="6.71" width="0.43" height="11.76"/><rect class="z" x="16.11" y="6.71" width="0.43" height="11.76"/><rect class="aa" x="16.54" y="6.71" width="0.43" height="11.76"/><rect class="ab" x="16.98" y="6.71" width="0.43" height="11.76"/><rect class="ac" x="17.41" y="6.71" width="0.43" height="11.76"/><rect class="ad" x="17.84" y="6.71" width="0.43" height="11.76"/><rect class="ae" x="18.28" y="6.71" width="0.43" height="11.76"/><rect class="af" x="18.71" y="6.71" width="0.43" height="11.76"/><rect class="ag" x="19.15" y="6.71" width="0.43" height="11.76"/><rect class="ah" x="19.58" y="6.71" width="0.43" height="11.76"/><rect class="ai" x="20.02" y="6.71" width="0.43" height="11.76"/><rect class="aj" x="20.45" y="6.71" width="0.43" height="11.76"/><rect class="ak" x="20.88" y="6.71" width="0.43" height="11.76"/><rect class="al" x="21.32" y="6.71" width="0.43" height="11.76"/><rect class="am" x="21.75" y="6.71" width="0.43" height="11.76"/><rect class="an" x="22.19" y="6.71" width="0.43" height="11.76"/><rect class="ao" x="22.62" y="6.71" width="0.43" height="11.76"/><rect class="ap" x="23.06" y="6.71" width="0.43" height="11.76"/><rect class="ap" x="23.49" y="6.71" width="0.1" height="11.76"/></g><g class="aq"><path class="ap" d="M54.66,97h0Z" transform="translate(-45.03 -80.08)"/><rect class="ap" x="9.63" y="16.53" width="20.56" height="0.4"/><rect class="ao" x="9.63" y="16.13" width="20.56" height="0.4"/><rect class="ao" x="9.63" y="15.73" width="20.56" height="0.4"/><rect class="an" x="9.63" y="15.33" width="20.56" height="0.4"/><rect class="ar" x="9.63" y="14.93" width="20.56" height="0.4"/><rect class="am" x="9.63" y="14.53" width="20.56" height="0.4"/><rect class="al" x="9.63" y="14.13" width="20.56" height="0.4"/><rect class="al" x="9.63" y="13.73" width="20.56" height="0.4"/><rect class="ak" x="9.63" y="13.33" width="20.56" height="0.4"/><rect class="aj" x="9.63" y="12.93" width="20.56" height="0.4"/><rect class="ai" x="9.63" y="12.53" width="20.56" height="0.4"/><rect class="ah" x="9.63" y="12.13" width="20.56" height="0.4"/><rect class="as" x="9.63" y="11.73" width="20.56" height="0.4"/><rect class="ag" x="9.63" y="11.33" width="20.56" height="0.4"/><rect class="af" x="9.63" y="10.93" width="20.56" height="0.4"/><rect class="ae" x="9.63" y="10.53" width="20.56" height="0.4"/><rect class="ad" x="9.63" y="10.13" width="20.56" height="0.4"/><rect class="ac" x="9.63" y="9.73" width="20.56" height="0.4"/><rect class="ab" x="9.63" y="9.33" width="20.56" height="0.4"/><rect class="aa" x="9.63" y="8.93" width="20.56" height="0.4"/><rect class="z" x="9.63" y="8.53" width="20.56" height="0.4"/><rect class="y" x="9.63" y="8.13" width="20.56" height="0.4"/><rect class="x" x="9.63" y="7.73" width="20.56" height="0.4"/><rect class="w" x="9.63" y="7.33" width="20.56" height="0.4"/><rect class="v" x="9.63" y="6.93" width="20.56" height="0.4"/><rect class="u" x="9.63" y="6.53" width="20.56" height="0.4"/><rect class="t" x="9.63" y="6.13" width="20.56" height="0.4"/><rect class="s" x="9.63" y="5.73" width="20.56" height="0.4"/><rect class="r" x="9.63" y="5.33" width="20.56" height="0.4"/><rect class="q" x="9.63" y="4.93" width="20.56" height="0.4"/><rect class="p" x="9.63" y="4.53" width="20.56" height="0.4"/><rect class="n" x="9.63" y="4.13" width="20.56" height="0.4"/><rect class="m" x="9.63" y="3.73" width="20.56" height="0.4"/><rect class="l" x="9.63" y="3.33" width="20.56" height="0.4"/><rect class="k" x="9.63" y="2.93" width="20.56" height="0.4"/><rect class="j" x="9.63" y="2.53" width="20.56" height="0.4"/><rect class="i" x="9.63" y="2.13" width="20.56" height="0.4"/><rect class="g" x="9.63" y="1.73" width="20.56" height="0.4"/><rect class="f" x="9.63" y="1.33" width="20.56" height="0.4"/><rect class="e" x="9.63" y="0.93" width="20.56" height="0.4"/><rect class="e" x="9.63" width="20.56" height="0.93"/></g><path class="b" d="M74.48,95.65v.15a.41.41,0,0,0,0,.11c-.06.14-.3.25-.3.25a1,1,0,0,1-.25-.18.75.75,0,0,0,0-.16h0a7.51,7.51,0,0,0-2.4-3.1,15.58,15.58,0,0,0-3.58-2.15,22.89,22.89,0,0,0-5-1.55,24.35,24.35,0,0,0-4.15-.4l-.91,0a2.48,2.48,0,0,1-2.07-2.32h0a.62.62,0,0,1,0-.13,2.54,2.54,0,0,1,.26-1.1h0a2.47,2.47,0,0,1,.51-.69,4.28,4.28,0,0,1,.56-.65c1.86-1.81,5.38-2.45,9-1.41a10.16,10.16,0,0,1,6.47,5,16.7,16.7,0,0,1,2,8.35Z" transform="translate(-45.03 -80.08)"/><g class="at"><polygon class="au" points="27.81 15.6 29.52 13.56 29.52 15.6 27.81 15.6"/><polygon class="au" points="27.73 15.6 29.52 13.47 29.52 13.56 27.81 15.6 27.73 15.6"/><polygon class="av" points="27.65 15.6 29.52 13.37 29.52 13.47 27.73 15.6 27.65 15.6"/><polygon class="aw" points="27.57 15.6 29.52 13.27 29.52 13.37 27.65 15.6 27.57 15.6"/><polygon class="ax" points="27.49 15.6 29.52 13.18 29.52 13.27 27.57 15.6 27.49 15.6"/><polygon class="ay" points="27.41 15.6 29.52 13.08 29.52 13.18 27.49 15.6 27.41 15.6"/><polygon class="az" points="27.32 15.6 29.52 12.98 29.52 13.08 27.41 15.6 27.32 15.6"/><polygon class="ba" points="27.24 15.6 29.52 12.88 29.52 12.98 27.32 15.6 27.24 15.6"/><polygon class="bb" points="27.16 15.6 29.52 12.79 29.52 12.88 27.24 15.6 27.16 15.6"/><polygon class="bc" points="27.08 15.6 29.52 12.69 29.52 12.79 27.16 15.6 27.08 15.6"/><polygon class="bd" points="27 15.6 29.52 12.6 29.52 12.69 27.08 15.6 27 15.6"/><polygon class="be" points="26.92 15.6 29.52 12.5 29.52 12.6 27 15.6 26.92 15.6"/><polygon class="bf" points="26.84 15.6 29.52 12.4 29.52 12.5 26.92 15.6 26.84 15.6"/><polygon class="bg" points="26.75 15.6 29.52 12.3 29.52 12.4 26.84 15.6 26.75 15.6"/><polygon class="bh" points="26.67 15.6 29.52 12.21 29.52 12.3 26.75 15.6 26.67 15.6"/><polygon class="bi" points="26.59 15.6 29.52 12.11 29.52 12.21 26.67 15.6 26.59 15.6"/><polygon class="bj" points="26.51 15.6 29.52 12.01 29.52 12.11 26.59 15.6 26.51 15.6"/><polygon class="bk" points="26.43 15.6 29.52 11.92 29.52 12.01 26.51 15.6 26.43 15.6"/><polygon class="bl" points="26.35 15.6 29.52 11.82 29.52 11.92 26.43 15.6 26.35 15.6"/><polygon class="bm" points="26.27 15.6 29.52 11.72 29.52 11.82 26.35 15.6 26.27 15.6"/><polygon class="bn" points="26.18 15.6 29.52 11.63 29.52 11.72 26.27 15.6 26.18 15.6"/><polygon class="bo" points="26.1 15.6 29.52 11.53 29.52 11.63 26.18 15.6 26.1 15.6"/><polygon class="bp" points="26.02 15.6 29.52 11.43 29.52 11.53 26.1 15.6 26.02 15.6"/><polygon class="bq" points="25.94 15.6 29.52 11.34 29.52 11.43 26.02 15.6 25.94 15.6"/><polygon class="br" points="25.86 15.6 29.52 11.24 29.52 11.34 25.94 15.6 25.86 15.6"/><polygon class="bs" points="25.78 15.6 29.52 11.14 29.52 11.24 25.86 15.6 25.78 15.6"/><polygon class="bt" points="25.69 15.6 29.52 11.04 29.52 11.14 25.78 15.6 25.69 15.6"/><polygon class="bu" points="25.61 15.6 29.52 10.95 29.52 11.04 25.69 15.6 25.61 15.6"/><polygon class="bv" points="25.53 15.6 29.52 10.85 29.52 10.95 25.61 15.6 25.53 15.6"/><polygon class="bw" points="25.45 15.6 29.52 10.75 29.52 10.85 25.53 15.6 25.45 15.6"/><polygon class="bx" points="25.37 15.6 29.52 10.66 29.52 10.75 25.45 15.6 25.37 15.6"/><polygon class="by" points="25.29 15.6 29.52 10.56 29.52 10.66 25.37 15.6 25.29 15.6"/><polygon class="bz" points="25.21 15.6 29.52 10.46 29.52 10.56 25.29 15.6 25.21 15.6"/><polygon class="ca" points="25.12 15.6 29.52 10.37 29.52 10.46 25.21 15.6 25.12 15.6"/><polygon class="cb" points="25.04 15.6 29.52 10.27 29.52 10.37 25.12 15.6 25.04 15.6"/><polygon class="cc" points="24.96 15.6 29.52 10.17 29.52 10.27 25.04 15.6 24.96 15.6"/><polygon class="cd" points="24.88 15.6 29.52 10.08 29.52 10.17 24.96 15.6 24.88 15.6"/><polygon class="ce" points="24.8 15.6 29.52 9.98 29.52 10.08 24.88 15.6 24.8 15.6"/><polygon class="cf" points="24.72 15.6 29.52 9.88 29.52 9.98 24.8 15.6 24.72 15.6"/><polygon class="cg" points="24.64 15.6 29.52 9.79 29.52 9.88 24.72 15.6 24.64 15.6"/><polygon class="ch" points="24.55 15.6 29.52 9.69 29.52 9.79 24.64 15.6 24.55 15.6"/><polygon class="ci" points="24.47 15.6 29.52 9.59 29.52 9.69 24.55 15.6 24.47 15.6"/><polygon class="cj" points="24.39 15.6 29.52 9.49 29.52 9.59 24.47 15.6 24.39 15.6"/><polygon class="ck" points="24.31 15.6 29.52 9.4 29.52 9.49 24.39 15.6 24.31 15.6"/><polygon class="cl" points="24.23 15.6 29.52 9.3 29.52 9.4 24.31 15.6 24.23 15.6"/><polygon class="cm" points="24.15 15.6 29.52 9.21 29.52 9.3 24.23 15.6 24.15 15.6"/><polygon class="cn" points="24.07 15.6 29.52 9.11 29.52 9.21 24.15 15.6 24.07 15.6"/><polygon class="co" points="23.98 15.6 29.52 9.01 29.52 9.11 24.07 15.6 23.98 15.6"/><polygon class="cp" points="23.9 15.6 29.52 8.91 29.52 9.01 23.98 15.6 23.9 15.6"/><polygon class="cq" points="23.82 15.6 29.52 8.82 29.52 8.91 23.9 15.6 23.82 15.6"/><polygon class="cr" points="23.74 15.6 29.52 8.72 29.52 8.82 23.82 15.6 23.74 15.6"/><polygon class="cs" points="23.66 15.6 29.52 8.62 29.52 8.72 23.74 15.6 23.66 15.6"/><polygon class="ct" points="23.58 15.6 29.52 8.53 29.52 8.62 23.66 15.6 23.58 15.6"/><polygon class="cu" points="23.5 15.6 29.52 8.43 29.52 8.53 23.58 15.6 23.5 15.6"/><polygon class="cv" points="23.41 15.6 29.52 8.33 29.52 8.43 23.5 15.6 23.41 15.6"/><polygon class="cw" points="23.33 15.6 29.52 8.24 29.52 8.33 23.41 15.6 23.33 15.6"/><polygon class="cx" points="23.25 15.6 29.52 8.14 29.52 8.24 23.33 15.6 23.25 15.6"/><polygon class="cy" points="23.17 15.6 29.52 8.04 29.52 8.14 23.25 15.6 23.17 15.6"/><polygon class="cz" points="23.09 15.6 29.52 7.95 29.52 8.04 23.17 15.6 23.09 15.6"/><polygon class="da" points="23.01 15.6 29.52 7.85 29.52 7.95 23.09 15.6 23.01 15.6"/><polygon class="db" points="22.92 15.6 29.52 7.75 29.52 7.85 23.01 15.6 22.92 15.6"/><polygon class="dc" points="22.84 15.6 29.52 7.66 29.52 7.75 22.92 15.6 22.84 15.6"/><polygon class="dd" points="22.76 15.6 29.52 7.56 29.52 7.66 22.84 15.6 22.76 15.6"/><polygon class="de" points="22.68 15.6 29.51 7.47 29.52 7.48 29.52 7.56 22.76 15.6 22.68 15.6"/><polygon class="df" points="22.6 15.6 29.47 7.43 29.51 7.47 22.68 15.6 22.6 15.6"/><polygon class="dg" points="22.52 15.6 29.42 7.39 29.47 7.43 22.6 15.6 22.52 15.6"/><polygon class="dh" points="22.43 15.6 29.37 7.35 29.42 7.39 22.52 15.6 22.43 15.6"/><polygon class="di" points="22.35 15.6 29.32 7.31 29.37 7.35 22.43 15.6 22.35 15.6"/><polygon class="dj" points="22.27 15.6 29.27 7.27 29.32 7.31 22.35 15.6 22.27 15.6"/><polygon class="dk" points="22.19 15.6 29.23 7.23 29.27 7.27 22.27 15.6 22.19 15.6"/><polygon class="dl" points="22.11 15.6 29.18 7.19 29.23 7.23 22.19 15.6 22.11 15.6"/><polygon class="dm" points="22.03 15.6 29.13 7.15 29.18 7.19 22.11 15.6 22.03 15.6"/><polygon class="dn" points="21.95 15.6 29.09 7.11 29.13 7.15 22.03 15.6 21.95 15.6"/><polygon class="do" points="21.86 15.6 29.04 7.07 29.09 7.11 21.95 15.6 21.86 15.6"/><polygon class="dp" points="21.78 15.6 28.99 7.03 29.04 7.07 21.86 15.6 21.78 15.6"/><polygon class="dq" points="21.7 15.6 28.94 6.99 28.99 7.03 21.78 15.6 21.7 15.6"/><polygon class="dr" points="21.62 15.6 28.89 6.95 28.94 6.99 21.7 15.6 21.62 15.6"/><polygon class="ds" points="21.54 15.6 28.85 6.91 28.89 6.95 21.62 15.6 21.54 15.6"/><polygon class="dt" points="21.46 15.6 28.8 6.87 28.85 6.91 21.54 15.6 21.46 15.6"/><polygon class="du" points="21.38 15.6 28.75 6.83 28.8 6.87 21.46 15.6 21.38 15.6"/><polygon class="dv" points="21.3 15.6 28.7 6.79 28.75 6.83 21.38 15.6 21.3 15.6"/><polygon class="dw" points="21.21 15.6 28.66 6.75 28.7 6.79 21.3 15.6 21.21 15.6"/><polygon class="dx" points="21.13 15.6 28.61 6.71 28.66 6.75 21.21 15.6 21.13 15.6"/><polygon class="dy" points="21.05 15.6 28.56 6.67 28.61 6.71 21.13 15.6 21.05 15.6"/><polygon class="dz" points="20.97 15.6 28.51 6.63 28.56 6.67 21.05 15.6 20.97 15.6"/><polygon class="ea" points="20.89 15.6 28.46 6.59 28.51 6.63 20.97 15.6 20.89 15.6"/><polygon class="eb" points="20.82 15.6 20.81 15.59 28.42 6.55 28.46 6.59 20.89 15.6 20.82 15.6"/><rect class="ec" x="63.71" y="91.09" width="11.81" height="0.06" transform="matrix(0.64, -0.77, 0.77, 0.64, -89.96, 5.67)"/><rect class="ed" x="63.67" y="91.05" width="11.81" height="0.06" transform="translate(-89.95 5.61) rotate(-49.93)"/><rect class="ee" x="63.62" y="91.01" width="11.81" height="0.06" transform="translate(-89.93 5.56) rotate(-49.93)"/><rect class="ef" x="63.57" y="90.97" width="11.81" height="0.06" transform="translate(-89.92 5.51) rotate(-49.93)"/><rect class="eg" x="63.52" y="90.93" width="11.81" height="0.06" transform="translate(-89.9 5.46) rotate(-49.93)"/><rect class="eh" x="63.47" y="90.89" width="11.81" height="0.06" transform="translate(-89.89 5.41) rotate(-49.93)"/><rect class="ei" x="63.43" y="90.85" width="11.81" height="0.06" transform="translate(-89.88 5.36) rotate(-49.93)"/><rect class="ej" x="63.38" y="90.81" width="11.81" height="0.06" transform="translate(-89.86 5.31) rotate(-49.93)"/><rect class="ek" x="63.33" y="90.77" width="11.81" height="0.06" transform="translate(-89.85 5.26) rotate(-49.93)"/><rect class="el" x="63.28" y="90.73" width="11.81" height="0.06" transform="translate(-89.84 5.21) rotate(-49.93)"/><rect class="em" x="63.24" y="90.69" width="11.81" height="0.06" transform="translate(-89.82 5.16) rotate(-49.93)"/><rect class="en" x="63.19" y="90.65" width="11.81" height="0.06" transform="translate(-89.81 5.11) rotate(-49.93)"/><rect class="eo" x="63.14" y="90.61" width="11.81" height="0.06" transform="translate(-89.79 5.06) rotate(-49.93)"/><rect class="ep" x="63.09" y="90.57" width="11.81" height="0.06" transform="translate(-89.78 5) rotate(-49.93)"/><rect class="eq" x="63.05" y="90.53" width="11.81" height="0.06" transform="translate(-89.77 4.95) rotate(-49.93)"/><rect class="er" x="63" y="90.49" width="11.81" height="0.06" transform="translate(-89.75 4.9) rotate(-49.93)"/><rect class="es" x="62.95" y="90.45" width="11.81" height="0.06" transform="translate(-89.74 4.85) rotate(-49.93)"/><rect class="et" x="62.9" y="90.41" width="11.81" height="0.06" transform="translate(-89.73 4.8) rotate(-49.93)"/><rect class="eu" x="62.85" y="90.37" width="11.81" height="0.06" transform="translate(-89.71 4.75) rotate(-49.93)"/><rect class="ev" x="62.81" y="90.33" width="11.81" height="0.06" transform="translate(-89.7 4.7) rotate(-49.93)"/><rect class="ew" x="62.76" y="90.29" width="11.81" height="0.06" transform="translate(-89.69 4.65) rotate(-49.93)"/><rect class="ex" x="62.71" y="90.25" width="11.81" height="0.06" transform="translate(-89.67 4.6) rotate(-49.93)"/><rect class="ey" x="62.66" y="90.21" width="11.81" height="0.06" transform="translate(-89.66 4.55) rotate(-49.93)"/><rect class="ez" x="62.62" y="90.17" width="11.81" height="0.06" transform="translate(-89.64 4.5) rotate(-49.93)"/><rect class="fa" x="62.57" y="90.13" width="11.81" height="0.06" transform="translate(-89.63 4.45) rotate(-49.93)"/><rect class="fb" x="62.52" y="90.09" width="11.81" height="0.06" transform="translate(-89.62 4.4) rotate(-49.93)"/><rect class="fc" x="62.47" y="90.05" width="11.81" height="0.06" transform="translate(-89.6 4.34) rotate(-49.93)"/><rect class="fd" x="62.42" y="90.01" width="11.81" height="0.06" transform="translate(-89.59 4.29) rotate(-49.93)"/><rect class="fe" x="62.38" y="89.97" width="11.81" height="0.06" transform="translate(-89.58 4.24) rotate(-49.93)"/><rect class="ff" x="62.33" y="89.93" width="11.81" height="0.06" transform="translate(-89.56 4.19) rotate(-49.93)"/><rect class="fg" x="62.28" y="89.89" width="11.81" height="0.06" transform="translate(-89.55 4.14) rotate(-49.93)"/><rect class="fh" x="62.23" y="89.85" width="11.81" height="0.06" transform="translate(-89.53 4.09) rotate(-49.93)"/><rect class="fi" x="62.19" y="89.81" width="11.81" height="0.06" transform="translate(-89.52 4.04) rotate(-49.93)"/><rect class="fj" x="62.14" y="89.77" width="11.81" height="0.06" transform="matrix(0.64, -0.77, 0.77, 0.64, -89.51, 3.99)"/><rect class="fk" x="62.09" y="89.73" width="11.81" height="0.06" transform="translate(-89.49 3.94) rotate(-49.93)"/><rect class="fl" x="62.04" y="89.69" width="11.81" height="0.06" transform="translate(-89.48 3.89) rotate(-49.93)"/><rect class="fl" x="62" y="89.65" width="11.81" height="0.06" transform="translate(-89.47 3.84) rotate(-49.93)"/><rect class="fm" x="61.95" y="89.61" width="11.81" height="0.06" transform="translate(-89.45 3.79) rotate(-49.93)"/><rect class="fm" x="61.9" y="89.57" width="11.81" height="0.06" transform="translate(-89.44 3.73) rotate(-49.93)"/><rect class="fn" x="61.85" y="89.53" width="11.81" height="0.06" transform="translate(-89.42 3.68) rotate(-49.93)"/><rect class="fn" x="61.8" y="89.49" width="11.81" height="0.06" transform="translate(-89.41 3.63) rotate(-49.93)"/><rect class="fn" x="61.71" y="89.36" width="11.81" height="0.17" transform="translate(-89.38 3.54) rotate(-49.93)"/><rect class="fn" x="61.58" y="89.24" width="11.81" height="0.17" transform="translate(-89.35 3.4) rotate(-49.93)"/><rect class="fn" x="61.45" y="89.13" width="11.81" height="0.17" transform="translate(-89.31 3.25) rotate(-49.93)"/><rect class="fn" x="61.32" y="89.02" width="11.81" height="0.17" transform="translate(-89.27 3.11) rotate(-49.93)"/><rect class="fo" x="61.18" y="88.91" width="11.81" height="0.17" transform="translate(-89.23 2.97) rotate(-49.93)"/><rect class="fp" x="61.05" y="88.8" width="11.81" height="0.17" transform="translate(-89.19 2.83) rotate(-49.93)"/><rect class="fp" x="60.92" y="88.68" width="11.81" height="0.17" transform="translate(-89.16 2.69) rotate(-49.93)"/><rect class="fp" x="60.78" y="88.57" width="11.81" height="0.17" transform="translate(-89.12 2.55) rotate(-49.93)"/><rect class="fq" x="60.65" y="88.46" width="11.81" height="0.17" transform="translate(-89.08 2.4) rotate(-49.93)"/><rect class="fr" x="60.52" y="88.35" width="11.81" height="0.17" transform="translate(-89.04 2.26) rotate(-49.93)"/><rect class="fs" x="60.38" y="88.24" width="11.81" height="0.17" transform="translate(-89 2.12) rotate(-49.93)"/><rect class="fs" x="60.25" y="88.12" width="11.81" height="0.17" transform="translate(-88.96 1.98) rotate(-49.93)"/><rect class="ft" x="60.12" y="88.01" width="11.81" height="0.17" transform="translate(-88.93 1.84) rotate(-49.93)"/><rect class="ft" x="59.99" y="87.9" width="11.81" height="0.17" transform="translate(-88.89 1.7) rotate(-49.93)"/><rect class="fu" x="59.85" y="87.79" width="11.81" height="0.17" transform="translate(-88.85 1.55) rotate(-49.93)"/><rect class="fv" x="59.72" y="87.68" width="11.81" height="0.17" transform="translate(-88.81 1.41) rotate(-49.93)"/><rect class="fw" x="59.59" y="87.57" width="11.81" height="0.17" transform="translate(-88.77 1.27) rotate(-49.93)"/><rect class="fx" x="59.45" y="87.45" width="11.81" height="0.17" transform="translate(-88.73 1.13) rotate(-49.93)"/><rect class="fy" x="59.32" y="87.34" width="11.81" height="0.17" transform="translate(-88.7 0.99) rotate(-49.93)"/><rect class="fy" x="59.19" y="87.23" width="11.81" height="0.17" transform="translate(-88.66 0.85) rotate(-49.93)"/><rect class="fz" x="59.05" y="87.12" width="11.81" height="0.17" transform="translate(-88.62 0.7) rotate(-49.93)"/><rect class="ga" x="58.92" y="87.01" width="11.81" height="0.17" transform="translate(-88.58 0.56) rotate(-49.93)"/><rect class="gb" x="58.79" y="86.89" width="11.81" height="0.17" transform="translate(-88.54 0.42) rotate(-49.93)"/><rect class="gc" x="58.66" y="86.78" width="11.81" height="0.17" transform="translate(-88.51 0.28) rotate(-49.93)"/><rect class="gd" x="58.52" y="86.67" width="11.81" height="0.17" transform="translate(-88.47 0.14) rotate(-49.93)"/><rect class="ge" x="58.39" y="86.56" width="11.81" height="0.17" transform="translate(-88.43 0) rotate(-49.93)"/><rect class="gf" x="58.26" y="86.45" width="11.81" height="0.17" transform="translate(-88.39 -0.15) rotate(-49.93)"/><rect class="gg" x="58.12" y="86.33" width="11.81" height="0.17" transform="translate(-88.35 -0.29) rotate(-49.93)"/><rect class="gh" x="57.99" y="86.22" width="11.81" height="0.17" transform="translate(-88.31 -0.43) rotate(-49.93)"/><rect class="gi" x="57.86" y="86.11" width="11.81" height="0.17" transform="translate(-88.28 -0.57) rotate(-49.93)"/><rect class="gj" x="57.72" y="86" width="11.81" height="0.17" transform="translate(-88.24 -0.71) rotate(-49.93)"/><rect class="gk" x="57.59" y="85.89" width="11.81" height="0.17" transform="translate(-88.2 -0.85) rotate(-49.93)"/><polygon class="gl" points="14.6 10.36 14.47 10.25 22.06 1.22 22.09 1.22 22.2 1.32 14.6 10.36"/><polygon class="gm" points="14.47 10.25 14.33 10.14 21.83 1.22 22.06 1.22 14.47 10.25"/><polygon class="gn" points="14.33 10.14 14.2 10.03 21.61 1.22 21.83 1.22 14.33 10.14"/><polygon class="go" points="14.2 10.03 14.07 9.92 21.38 1.22 21.61 1.22 14.2 10.03"/><polygon class="gp" points="14.07 9.92 13.93 9.8 21.15 1.22 21.38 1.22 14.07 9.92"/><polygon class="gq" points="13.93 9.8 13.8 9.69 20.93 1.22 21.15 1.22 13.93 9.8"/><polygon class="gr" points="13.8 9.69 13.67 9.58 20.7 1.22 20.93 1.22 13.8 9.69"/><polygon class="gs" points="13.67 9.58 13.54 9.47 20.47 1.22 20.7 1.22 13.67 9.58"/><polygon class="gt" points="13.54 9.47 13.4 9.36 20.24 1.22 20.47 1.22 13.54 9.47"/><polygon class="gu" points="13.4 9.36 13.27 9.24 20.02 1.22 20.24 1.22 13.4 9.36"/><polygon class="gv" points="13.27 9.24 13.14 9.13 19.79 1.22 20.02 1.22 13.27 9.24"/><polygon class="gw" points="13.14 9.13 13 9.02 19.56 1.22 19.79 1.22 13.14 9.13"/><polygon class="gx" points="13 9.02 12.87 8.91 19.34 1.22 19.56 1.22 13 9.02"/><polygon class="gy" points="12.87 8.91 12.74 8.8 19.11 1.22 19.34 1.22 12.87 8.91"/><polygon class="gz" points="12.74 8.8 12.6 8.69 18.88 1.22 19.11 1.22 12.74 8.8"/><polygon class="ha" points="12.6 8.69 12.47 8.57 18.65 1.22 18.88 1.22 12.6 8.69"/><polygon class="hb" points="12.47 8.57 12.34 8.46 18.43 1.22 18.65 1.22 12.47 8.57"/><polygon class="hc" points="12.34 8.46 12.21 8.35 18.2 1.22 18.43 1.22 12.34 8.46"/><polygon class="hd" points="12.21 8.35 12.07 8.24 17.97 1.22 18.2 1.22 12.21 8.35"/><polygon class="he" points="12.07 8.24 11.94 8.13 17.75 1.22 17.97 1.22 12.07 8.24"/><polygon class="hf" points="11.94 8.13 11.81 8.01 17.52 1.22 17.75 1.22 11.94 8.13"/><polygon class="hg" points="11.81 8.01 11.67 7.9 17.29 1.22 17.52 1.22 11.81 8.01"/><polygon class="hh" points="11.67 7.9 11.54 7.79 17.06 1.22 17.29 1.22 11.67 7.9"/><polygon class="hi" points="11.54 7.79 11.41 7.68 16.84 1.22 17.06 1.22 11.54 7.79"/><polygon class="hj" points="11.41 7.68 11.27 7.57 16.61 1.22 16.84 1.22 11.41 7.68"/><polygon class="hk" points="11.27 7.57 11.14 7.46 16.38 1.22 16.61 1.22 11.27 7.57"/><polygon class="hl" points="11.14 7.46 11.01 7.34 16.16 1.22 16.38 1.22 11.14 7.46"/><polygon class="hl" points="11.01 7.34 10.94 7.29 10.94 1.22 16.16 1.22 11.01 7.34"/></g><g class="hm"><polygon class="au" points="19.04 5.38 18.73 5.93 18.73 5.38 19.04 5.38"/><polygon class="au" points="19.12 5.38 18.73 6.06 18.73 5.93 19.04 5.38 19.12 5.38"/><polygon class="au" points="19.19 5.38 18.73 6.17 18.73 6.17 18.73 6.06 19.12 5.38 19.19 5.38"/><polygon class="au" points="19.26 5.38 18.79 6.21 18.73 6.17 19.19 5.38 19.26 5.38"/><polygon class="au" points="19.34 5.38 18.84 6.24 18.79 6.21 19.26 5.38 19.34 5.38"/><polygon class="hn" points="19.41 5.38 18.9 6.27 18.84 6.24 19.34 5.38 19.41 5.38"/><polygon class="ho" points="19.48 5.38 18.95 6.3 18.9 6.27 19.41 5.38 19.48 5.38"/><polygon class="hp" points="19.56 5.38 19.01 6.33 18.95 6.3 19.48 5.38 19.56 5.38"/><polygon class="hq" points="19.63 5.38 19.07 6.36 19.01 6.33 19.56 5.38 19.63 5.38"/><polygon class="hq" points="19.71 5.38 19.12 6.4 19.07 6.36 19.63 5.38 19.71 5.38"/><polygon class="hq" points="19.78 5.38 19.18 6.43 19.12 6.4 19.71 5.38 19.78 5.38"/><polygon class="hr" points="19.85 5.38 19.23 6.46 19.18 6.43 19.78 5.38 19.85 5.38"/><polygon class="hs" points="19.93 5.38 19.29 6.49 19.23 6.46 19.85 5.38 19.93 5.38"/><polygon class="hs" points="20 5.38 19.34 6.52 19.29 6.49 19.93 5.38 20 5.38"/><polygon class="ht" points="20.07 5.38 19.4 6.56 19.34 6.52 20 5.38 20.07 5.38"/><polygon class="ht" points="20.15 5.38 19.45 6.59 19.4 6.56 20.07 5.38 20.15 5.38"/><polygon class="hu" points="20.22 5.38 19.51 6.62 19.45 6.59 20.15 5.38 20.22 5.38"/><polygon class="hv" points="20.3 5.38 19.56 6.65 19.51 6.62 20.22 5.38 20.3 5.38"/><polygon class="hw" points="20.37 5.38 19.62 6.68 19.56 6.65 20.3 5.38 20.37 5.38"/><polygon class="hx" points="20.44 5.38 19.67 6.71 19.62 6.68 20.37 5.38 20.44 5.38"/><polygon class="hy" points="20.52 5.38 19.73 6.75 19.67 6.71 20.44 5.38 20.52 5.38"/><polygon class="hz" points="20.59 5.38 19.78 6.78 19.73 6.75 20.52 5.38 20.59 5.38"/><polygon class="ia" points="20.66 5.38 19.85 6.79 19.8 6.79 19.78 6.78 20.59 5.38 20.66 5.38"/><polygon class="ib" points="20.74 5.38 19.93 6.79 19.85 6.79 20.66 5.38 20.74 5.38"/><polygon class="ic" points="20.81 5.38 20 6.79 19.93 6.79 20.74 5.38 20.81 5.38"/><polygon class="id" points="20.89 5.38 20.07 6.79 20 6.79 20.81 5.38 20.89 5.38"/><polygon class="ie" points="20.96 5.38 20.15 6.79 20.07 6.79 20.89 5.38 20.96 5.38"/><polygon class="if" points="21.03 5.38 20.22 6.79 20.15 6.79 20.96 5.38 21.03 5.38"/><polygon class="ig" points="21.11 5.38 20.29 6.79 20.22 6.79 21.03 5.38 21.11 5.38"/><polygon class="ih" points="21.18 5.38 20.37 6.79 20.29 6.79 21.11 5.38 21.18 5.38"/><polygon class="ii" points="21.24 5.38 21.25 5.39 20.44 6.79 20.37 6.79 21.18 5.38 21.24 5.38"/><polygon class="ij" points="21.25 5.39 21.31 5.42 20.52 6.79 20.44 6.79 21.25 5.39"/><polygon class="ik" points="21.31 5.42 21.36 5.45 20.59 6.79 20.52 6.79 21.31 5.42"/><polygon class="il" points="21.36 5.45 21.42 5.48 20.66 6.79 20.59 6.79 21.36 5.45"/><polygon class="im" points="21.42 5.48 21.47 5.51 20.74 6.79 20.66 6.79 21.42 5.48"/><polygon class="in" points="21.47 5.51 21.53 5.54 20.81 6.79 20.74 6.79 21.47 5.51"/><polygon class="io" points="21.53 5.54 21.58 5.58 20.88 6.79 20.81 6.79 21.53 5.54"/><polygon class="ip" points="21.58 5.58 21.64 5.61 20.96 6.79 20.88 6.79 21.58 5.58"/><polygon class="iq" points="21.64 5.61 21.69 5.64 21.03 6.79 20.96 6.79 21.64 5.61"/><polygon class="ir" points="21.69 5.64 21.75 5.67 21.1 6.79 21.03 6.79 21.69 5.64"/><polygon class="is" points="21.75 5.67 21.8 5.71 21.18 6.79 21.1 6.79 21.75 5.67"/><polygon class="it" points="21.8 5.71 21.86 5.74 21.25 6.79 21.18 6.79 21.8 5.71"/><polygon class="iu" points="21.86 5.74 21.91 5.77 21.32 6.79 21.25 6.79 21.86 5.74"/><polygon class="iv" points="21.91 5.77 21.97 5.8 21.4 6.79 21.32 6.79 21.91 5.77"/><polygon class="iw" points="21.97 5.8 22.02 5.83 21.47 6.79 21.4 6.79 21.97 5.8"/><polygon class="ix" points="22.02 5.83 22.08 5.86 21.55 6.79 21.47 6.79 22.02 5.83"/><polygon class="iy" points="22.08 5.86 22.14 5.9 21.62 6.79 21.55 6.79 22.08 5.86"/><polygon class="iz" points="22.14 5.9 22.19 5.93 21.69 6.79 21.62 6.79 22.14 5.9"/><polygon class="ja" points="22.19 5.93 22.25 5.96 21.77 6.79 21.69 6.79 22.19 5.93"/><polygon class="jb" points="22.25 5.96 22.3 5.99 21.84 6.79 21.77 6.79 22.25 5.96"/><polygon class="jc" points="22.3 5.99 22.31 6 22.31 6.1 21.91 6.79 21.84 6.79 22.3 5.99"/><polygon class="jd" points="22.31 6.22 21.99 6.79 21.91 6.79 22.31 6.1 22.31 6.22"/><polygon class="je" points="22.31 6.35 22.06 6.79 21.99 6.79 22.31 6.22 22.31 6.35"/><polygon class="je" points="22.06 6.79 22.31 6.35 22.31 6.79 22.06 6.79"/></g><path class="fn" d="M62.07,86a1.5,1.5,0,0,1-.3-.48,1.06,1.06,0,0,1-.07-.59.85.85,0,0,1,.37-.53,1.33,1.33,0,0,1,.56-.24,2.58,2.58,0,0,1,1.14,0,2.85,2.85,0,0,1,1,.46c-.36-.06-.71-.12-1-.15a3.64,3.64,0,0,0-1,.06A1,1,0,0,0,62,85,1.72,1.72,0,0,0,62.07,86Z" transform="translate(-45.03 -80.08)"/><path class="fn" d="M61.94,87.38A11.38,11.38,0,0,1,60,86.87a6,6,0,0,1-1.61-.82,1.56,1.56,0,0,1-.51-.61,1.36,1.36,0,0,1,0-.2v-.1l0-.1a.77.77,0,0,1,.38-.35,3.49,3.49,0,0,1,1-.34,7.91,7.91,0,0,1,1.08-.11c-.35.08-.69.15-1,.25a3.42,3.42,0,0,0-.86.36c-.47.28-.16.7.25,1a4.29,4.29,0,0,0,.67.43c.24.14.51.26.77.39C60.8,86.92,61.37,87.15,61.94,87.38Z" transform="translate(-45.03 -80.08)"/><g class="jf"><polygon class="ap" points="20.56 18.38 11.1 8.92 20.56 8.92 20.56 18.38"/><polygon class="ap" points="20.56 18.86 10.62 8.92 11.1 8.92 20.56 18.38 20.56 18.86"/><polygon class="ao" points="20.56 19.35 10.13 8.92 10.62 8.92 20.56 18.86 20.56 19.35"/><polygon class="ao" points="20.56 19.84 9.64 8.92 10.13 8.92 20.56 19.35 20.56 19.84"/><polygon class="an" points="20.56 20.32 9.16 8.92 9.64 8.92 20.56 19.84 20.56 20.32"/><polygon class="ar" points="20.56 20.81 8.67 8.92 9.16 8.92 20.56 20.32 20.56 20.81"/><polygon class="am" points="20.56 21.3 8.19 8.92 8.67 8.92 20.56 20.81 20.56 21.3"/><polygon class="al" points="20.56 21.78 7.7 8.92 8.19 8.92 20.56 21.3 20.56 21.78"/><polygon class="al" points="20.56 22.27 7.21 8.92 7.7 8.92 20.56 21.78 20.56 22.27"/><polygon class="ak" points="20.56 22.75 6.73 8.92 7.21 8.92 20.56 22.27 20.56 22.75"/><polygon class="aj" points="20.56 23.22 20.55 23.23 6.24 8.92 6.73 8.92 20.56 22.75 20.56 23.22"/><polygon class="ai" points="20.55 23.23 20.3 23.47 5.75 8.92 6.24 8.92 20.55 23.23"/><polygon class="ah" points="20.3 23.47 20.06 23.71 5.27 8.92 5.75 8.92 20.3 23.47"/><polygon class="as" points="20.06 23.71 19.82 23.96 4.78 8.92 5.27 8.92 20.06 23.71"/><polygon class="ag" points="19.82 23.96 19.57 24.2 4.3 8.92 4.78 8.92 19.82 23.96"/><polygon class="af" points="19.57 24.2 19.33 24.44 3.81 8.92 4.3 8.92 19.57 24.2"/><polygon class="ae" points="19.33 24.44 19.09 24.69 3.33 8.92 3.81 8.92 19.33 24.44"/><polygon class="ad" points="19.09 24.69 18.84 24.93 2.84 8.92 3.33 8.92 19.09 24.69"/><polygon class="ac" points="18.84 24.93 18.6 25.17 2.35 8.92 2.84 8.92 18.84 24.93"/><polygon class="ab" points="18.6 25.17 18.36 25.42 1.87 8.92 2.35 8.92 18.6 25.17"/><polygon class="aa" points="18.36 25.42 18.12 25.66 1.38 8.92 1.87 8.92 18.36 25.42"/><polygon class="z" points="18.12 25.66 17.93 25.85 17.82 25.85 0.89 8.92 1.38 8.92 18.12 25.66"/><polygon class="y" points="17.33 25.85 0.41 8.92 0.89 8.92 17.82 25.85 17.33 25.85"/><polygon class="x" points="16.85 25.85 0.14 9.14 0.36 8.92 0.41 8.92 17.33 25.85 16.85 25.85"/><polygon class="w" points="16.36 25.85 0 9.49 0 9.29 0.14 9.14 16.85 25.85 16.36 25.85"/><polygon class="v" points="15.88 25.85 0 9.97 0 9.49 16.36 25.85 15.88 25.85"/><polygon class="u" points="15.39 25.85 0 10.46 0 9.97 15.88 25.85 15.39 25.85"/><polygon class="t" points="14.9 25.85 0 10.95 0 10.46 15.39 25.85 14.9 25.85"/><polygon class="s" points="14.42 25.85 0 11.43 0 10.95 14.9 25.85 14.42 25.85"/><polygon class="r" points="13.93 25.85 0 11.92 0 11.43 14.42 25.85 13.93 25.85"/><polygon class="q" points="13.45 25.85 0 12.4 0 11.92 13.93 25.85 13.45 25.85"/><polygon class="p" points="12.96 25.85 0 12.89 0 12.4 13.45 25.85 12.96 25.85"/><polygon class="n" points="12.47 25.85 0 13.38 0 12.89 12.96 25.85 12.47 25.85"/><polygon class="m" points="11.99 25.85 0 13.86 0 13.38 12.47 25.85 11.99 25.85"/><polygon class="l" points="11.5 25.85 0 14.35 0 13.86 11.99 25.85 11.5 25.85"/><polygon class="k" points="11.02 25.85 0 14.83 0 14.35 11.5 25.85 11.02 25.85"/><polygon class="j" points="10.53 25.85 0 15.32 0 14.83 11.02 25.85 10.53 25.85"/><polygon class="i" points="10.04 25.85 0 15.81 0 15.32 10.53 25.85 10.04 25.85"/><polygon class="g" points="9.56 25.85 0 16.29 0 15.81 10.04 25.85 9.56 25.85"/><polygon class="f" points="9.07 25.85 0 16.78 0 16.29 9.56 25.85 9.07 25.85"/><polygon class="e" points="8.58 25.85 0 17.27 0 16.78 9.07 25.85 8.58 25.85"/><polygon class="e" points="0 17.27 8.58 25.85 0 25.85 0 17.27"/></g><path class="b" d="M45.77,90.35V90.2a.41.41,0,0,0,0-.11c.06-.14.3-.25.3-.25a1,1,0,0,1,.25.18.75.75,0,0,0,.05.16h0a7.51,7.51,0,0,0,2.4,3.1,15.58,15.58,0,0,0,3.58,2.15,23.06,23.06,0,0,0,5,1.55,24.35,24.35,0,0,0,4.15.4l.91,0a2.48,2.48,0,0,1,2.07,2.32h0a.62.62,0,0,1,0,.13,2.54,2.54,0,0,1-.26,1.1h0a2.47,2.47,0,0,1-.51.69,4.28,4.28,0,0,1-.56.65c-1.86,1.81-5.38,2.45-9,1.41a10.16,10.16,0,0,1-6.47-5,16.7,16.7,0,0,1-2-8.35Z" transform="translate(-45.03 -80.08)"/><g class="jg"><polygon class="au" points="12 24.63 19.25 20.44 19.25 24.63 12 24.63"/><polygon class="au" points="11.89 24.63 19.25 20.38 19.25 20.44 12 24.63 11.89 24.63"/><polygon class="av" points="11.78 24.63 19.25 20.31 19.25 20.38 11.89 24.63 11.78 24.63"/><polygon class="aw" points="11.66 24.63 19.25 20.25 19.25 20.31 11.78 24.63 11.66 24.63"/><polygon class="ax" points="11.55 24.63 19.25 20.18 19.25 20.25 11.66 24.63 11.55 24.63"/><polygon class="ay" points="11.43 24.63 19.25 20.11 19.25 20.18 11.55 24.63 11.43 24.63"/><polygon class="az" points="11.32 24.63 19.25 20.05 19.25 20.11 11.43 24.63 11.32 24.63"/><polygon class="ba" points="11.21 24.63 19.25 19.98 19.25 20.05 11.32 24.63 11.21 24.63"/><polygon class="bb" points="11.09 24.63 19.25 19.92 19.25 19.98 11.21 24.63 11.09 24.63"/><polygon class="bc" points="10.98 24.63 19.25 19.85 19.25 19.92 11.09 24.63 10.98 24.63"/><polygon class="bd" points="10.87 24.63 19.25 19.79 19.25 19.85 10.98 24.63 10.87 24.63"/><polygon class="be" points="10.75 24.63 19.25 19.72 19.25 19.79 10.87 24.63 10.75 24.63"/><polygon class="bf" points="10.64 24.63 19.25 19.65 19.25 19.72 10.75 24.63 10.64 24.63"/><polygon class="bg" points="10.52 24.63 19.25 19.59 19.25 19.65 10.64 24.63 10.52 24.63"/><polygon class="bh" points="10.41 24.63 19.25 19.52 19.25 19.59 10.52 24.63 10.41 24.63"/><polygon class="bi" points="10.29 24.63 19.25 19.46 19.25 19.52 10.41 24.63 10.29 24.63"/><polygon class="bj" points="10.18 24.63 19.25 19.39 19.25 19.46 10.29 24.63 10.18 24.63"/><polygon class="bk" points="10.07 24.63 19.25 19.33 19.25 19.39 10.18 24.63 10.07 24.63"/><polygon class="bl" points="9.95 24.63 19.25 19.26 19.25 19.33 10.07 24.63 9.95 24.63"/><polygon class="bm" points="9.84 24.63 19.25 19.19 19.25 19.26 9.95 24.63 9.84 24.63"/><polygon class="bn" points="9.73 24.63 19.25 19.13 19.25 19.19 9.84 24.63 9.73 24.63"/><polygon class="bo" points="9.61 24.63 19.25 19.06 19.25 19.13 9.73 24.63 9.61 24.63"/><polygon class="bp" points="9.5 24.63 19.25 19 19.25 19.06 9.61 24.63 9.5 24.63"/><polygon class="bq" points="9.38 24.63 19.25 18.93 19.25 19 9.5 24.63 9.38 24.63"/><polygon class="br" points="9.27 24.63 19.25 18.86 19.25 18.93 9.38 24.63 9.27 24.63"/><polygon class="bs" points="9.16 24.63 19.25 18.8 19.25 18.86 9.27 24.63 9.16 24.63"/><polygon class="bt" points="9.04 24.63 19.24 18.74 19.25 18.74 19.25 18.8 9.16 24.63 9.04 24.63"/><polygon class="bu" points="8.93 24.63 19.21 18.69 19.24 18.74 9.04 24.63 8.93 24.63"/><polygon class="bv" points="8.81 24.63 19.19 18.64 19.21 18.69 8.93 24.63 8.81 24.63"/><polygon class="bw" points="8.7 24.63 19.16 18.59 19.19 18.64 8.81 24.63 8.7 24.63"/><polygon class="bx" points="8.59 24.63 19.13 18.54 19.16 18.59 8.7 24.63 8.59 24.63"/><polygon class="by" points="8.47 24.63 19.1 18.49 19.13 18.54 8.59 24.63 8.47 24.63"/><polygon class="bz" points="8.36 24.63 19.07 18.44 19.1 18.49 8.47 24.63 8.36 24.63"/><polygon class="ca" points="8.25 24.63 19.04 18.39 19.07 18.44 8.36 24.63 8.25 24.63"/><polygon class="cb" points="8.13 24.63 19.02 18.34 19.04 18.39 8.25 24.63 8.13 24.63"/><polygon class="cc" points="8.02 24.63 18.99 18.29 19.02 18.34 8.13 24.63 8.02 24.63"/><polygon class="cd" points="7.91 24.63 18.96 18.24 18.99 18.29 8.02 24.63 7.91 24.63"/><polygon class="ce" points="7.79 24.63 18.93 18.19 18.96 18.24 7.91 24.63 7.79 24.63"/><polygon class="cf" points="7.68 24.63 18.9 18.14 18.93 18.19 7.79 24.63 7.68 24.63"/><polygon class="cg" points="7.56 24.63 18.87 18.09 18.9 18.14 7.68 24.63 7.56 24.63"/><polygon class="ch" points="7.45 24.63 18.84 18.05 18.87 18.09 7.56 24.63 7.45 24.63"/><polygon class="ci" points="7.33 24.63 18.82 18 18.84 18.05 7.45 24.63 7.33 24.63"/><polygon class="cj" points="7.22 24.63 18.79 17.95 18.82 18 7.33 24.63 7.22 24.63"/><polygon class="ck" points="7.11 24.63 18.76 17.9 18.79 17.95 7.22 24.63 7.11 24.63"/><polygon class="cl" points="6.99 24.63 18.73 17.85 18.76 17.9 7.11 24.63 6.99 24.63"/><polygon class="cm" points="6.88 24.63 18.7 17.8 18.73 17.85 6.99 24.63 6.88 24.63"/><polygon class="cn" points="6.77 24.63 18.67 17.75 18.7 17.8 6.88 24.63 6.77 24.63"/><polygon class="co" points="6.65 24.63 18.64 17.7 18.67 17.75 6.77 24.63 6.65 24.63"/><polygon class="cp" points="6.54 24.63 18.62 17.65 18.64 17.7 6.65 24.63 6.54 24.63"/><polygon class="cq" points="6.42 24.63 18.59 17.6 18.62 17.65 6.54 24.63 6.42 24.63"/><polygon class="cr" points="6.31 24.63 18.56 17.55 18.59 17.6 6.42 24.63 6.31 24.63"/><polygon class="cs" points="6.2 24.63 18.53 17.5 18.56 17.55 6.31 24.63 6.2 24.63"/><polygon class="ct" points="6.08 24.63 18.5 17.45 18.53 17.5 6.2 24.63 6.08 24.63"/><polygon class="cu" points="5.97 24.63 18.47 17.41 18.5 17.45 6.08 24.63 5.97 24.63"/><polygon class="cv" points="5.86 24.63 18.45 17.36 18.47 17.41 5.97 24.63 5.86 24.63"/><polygon class="cw" points="5.79 24.63 5.78 24.6 18.42 17.31 18.45 17.36 5.86 24.63 5.79 24.63"/><rect class="cx" x="49.82" y="100.98" width="14.59" height="0.06" transform="translate(-87.88 -37.99) rotate(-30)"/><rect class="cy" x="49.79" y="100.93" width="14.59" height="0.06" transform="translate(-87.86 -38.01) rotate(-30)"/><rect class="cz" x="49.76" y="100.88" width="14.59" height="0.06" transform="translate(-87.84 -38.03) rotate(-30)"/><rect class="da" x="49.73" y="100.83" width="14.59" height="0.06" transform="translate(-87.82 -38.05) rotate(-30)"/><rect class="db" x="49.7" y="100.78" width="14.59" height="0.06" transform="translate(-87.8 -38.07) rotate(-30)"/><rect class="dc" x="49.68" y="100.73" width="14.59" height="0.06" transform="translate(-87.78 -38.09) rotate(-30)"/><rect class="dd" x="49.65" y="100.68" width="14.59" height="0.06" transform="translate(-87.76 -38.11) rotate(-30)"/><rect class="de" x="49.62" y="100.63" width="14.59" height="0.06" transform="translate(-87.74 -38.13) rotate(-30)"/><rect class="df" x="49.59" y="100.58" width="14.59" height="0.06" transform="translate(-87.71 -38.15) rotate(-30)"/><rect class="dg" x="49.56" y="100.53" width="14.59" height="0.06" transform="translate(-87.69 -38.17) rotate(-30)"/><rect class="dh" x="49.53" y="100.48" width="14.59" height="0.06" transform="translate(-87.67 -38.19) rotate(-30)"/><rect class="di" x="49.51" y="100.44" width="14.59" height="0.06" transform="translate(-87.65 -38.22) rotate(-30)"/><rect class="dj" x="49.48" y="100.39" width="14.59" height="0.06" transform="translate(-87.63 -38.24) rotate(-30)"/><rect class="dk" x="49.45" y="100.34" width="14.59" height="0.06" transform="translate(-87.61 -38.26) rotate(-30)"/><rect class="dl" x="49.42" y="100.29" width="14.59" height="0.06" transform="translate(-87.59 -38.28) rotate(-30)"/><rect class="dm" x="49.39" y="100.24" width="14.59" height="0.06" transform="translate(-87.57 -38.3) rotate(-30)"/><rect class="dn" x="49.36" y="100.19" width="14.59" height="0.06" transform="translate(-87.55 -38.32) rotate(-30)"/><rect class="do" x="49.33" y="100.14" width="14.59" height="0.06" transform="translate(-87.53 -38.34) rotate(-30)"/><rect class="dp" x="49.31" y="100.09" width="14.59" height="0.06" transform="translate(-87.51 -38.36) rotate(-30)"/><rect class="dq" x="49.28" y="100.04" width="14.59" height="0.06" transform="translate(-87.49 -38.38) rotate(-30)"/><rect class="dr" x="49.25" y="99.99" width="14.59" height="0.06" transform="translate(-87.46 -38.4) rotate(-30)"/><rect class="ds" x="49.22" y="99.94" width="14.59" height="0.06" transform="translate(-87.44 -38.42) rotate(-30)"/><rect class="dt" x="49.19" y="99.89" width="14.59" height="0.06" transform="translate(-87.42 -38.44) rotate(-30)"/><rect class="du" x="49.16" y="99.84" width="14.59" height="0.06" transform="translate(-87.4 -38.47) rotate(-30)"/><rect class="dv" x="49.14" y="99.79" width="14.59" height="0.06" transform="translate(-87.38 -38.49) rotate(-30)"/><rect class="dw" x="49.11" y="99.74" width="14.59" height="0.06" transform="translate(-87.36 -38.51) rotate(-30)"/><rect class="dx" x="49.08" y="99.7" width="14.59" height="0.06" transform="translate(-87.34 -38.53) rotate(-30)"/><rect class="dy" x="49.05" y="99.65" width="14.59" height="0.06" transform="translate(-87.32 -38.55) rotate(-30)"/><rect class="dz" x="49.02" y="99.6" width="14.59" height="0.06" transform="translate(-87.3 -38.57) rotate(-30)"/><rect class="ea" x="48.99" y="99.55" width="14.59" height="0.06" transform="translate(-87.28 -38.59) rotate(-30)"/><rect class="eb" x="48.96" y="99.5" width="14.59" height="0.06" transform="translate(-87.26 -38.61) rotate(-30)"/><rect class="ec" x="48.94" y="99.45" width="14.59" height="0.06" transform="translate(-87.24 -38.63) rotate(-30)"/><rect class="ed" x="48.91" y="99.4" width="14.59" height="0.06" transform="translate(-87.21 -38.65) rotate(-30)"/><rect class="ee" x="48.88" y="99.35" width="14.59" height="0.06" transform="translate(-87.19 -38.67) rotate(-30)"/><rect class="ef" x="48.85" y="99.3" width="14.59" height="0.06" transform="translate(-87.17 -38.69) rotate(-30)"/><rect class="eg" x="48.82" y="99.25" width="14.59" height="0.06" transform="translate(-87.15 -38.72) rotate(-30)"/><rect class="eh" x="48.79" y="99.2" width="14.59" height="0.06" transform="translate(-87.13 -38.74) rotate(-30)"/><rect class="ei" x="48.77" y="99.15" width="14.59" height="0.06" transform="translate(-87.11 -38.76) rotate(-30)"/><rect class="ej" x="48.74" y="99.1" width="14.59" height="0.06" transform="translate(-87.09 -38.78) rotate(-30)"/><rect class="ek" x="48.71" y="99.05" width="14.59" height="0.06" transform="translate(-87.07 -38.8) rotate(-30)"/><rect class="el" x="48.68" y="99.01" width="14.59" height="0.06" transform="translate(-87.05 -38.82) rotate(-30)"/><rect class="em" x="48.65" y="98.96" width="14.59" height="0.06" transform="translate(-87.03 -38.84) rotate(-30)"/><rect class="en" x="48.62" y="98.91" width="14.59" height="0.06" transform="translate(-87.01 -38.86) rotate(-30)"/><rect class="eo" x="48.59" y="98.86" width="14.59" height="0.06" transform="translate(-86.99 -38.88) rotate(-30)"/><rect class="ep" x="48.57" y="98.81" width="14.59" height="0.06" transform="translate(-86.96 -38.9) rotate(-30)"/><rect class="eq" x="48.54" y="98.76" width="14.59" height="0.06" transform="translate(-86.94 -38.92) rotate(-30)"/><rect class="er" x="48.51" y="98.71" width="14.59" height="0.06" transform="translate(-86.92 -38.94) rotate(-30)"/><rect class="es" x="48.48" y="98.66" width="14.59" height="0.06" transform="translate(-86.9 -38.97) rotate(-30)"/><rect class="et" x="48.45" y="98.61" width="14.59" height="0.06" transform="translate(-86.88 -38.99) rotate(-30)"/><rect class="eu" x="48.42" y="98.56" width="14.59" height="0.06" transform="translate(-86.86 -39.01) rotate(-30)"/><rect class="ev" x="48.4" y="98.51" width="14.59" height="0.06" transform="translate(-86.84 -39.03) rotate(-30)"/><rect class="ew" x="48.37" y="98.46" width="14.59" height="0.06" transform="translate(-86.82 -39.05) rotate(-30)"/><rect class="ex" x="48.34" y="98.41" width="14.59" height="0.06" transform="translate(-86.8 -39.07) rotate(-30)"/><rect class="ey" x="48.31" y="98.36" width="14.59" height="0.06" transform="translate(-86.78 -39.09) rotate(-30)"/><rect class="ez" x="48.28" y="98.32" width="14.59" height="0.06" transform="translate(-86.76 -39.11) rotate(-30)"/><rect class="fa" x="48.25" y="98.27" width="14.59" height="0.06" transform="translate(-86.74 -39.13) rotate(-30)"/><rect class="fb" x="48.22" y="98.22" width="14.59" height="0.06" transform="translate(-86.71 -39.15) rotate(-30)"/><rect class="fc" x="48.2" y="98.17" width="14.59" height="0.06" transform="translate(-86.69 -39.17) rotate(-30)"/><rect class="fd" x="48.17" y="98.12" width="14.59" height="0.06" transform="translate(-86.67 -39.19) rotate(-30)"/><rect class="fe" x="48.14" y="98.07" width="14.59" height="0.06" transform="translate(-86.65 -39.22) rotate(-30)"/><rect class="ff" x="48.11" y="98.02" width="14.59" height="0.06" transform="translate(-86.63 -39.24) rotate(-30)"/><rect class="fg" x="48.08" y="97.97" width="14.59" height="0.06" transform="translate(-86.61 -39.26) rotate(-30)"/><rect class="fh" x="48.05" y="97.92" width="14.59" height="0.06" transform="translate(-86.59 -39.28) rotate(-30)"/><rect class="fi" x="48.03" y="97.87" width="14.59" height="0.06" transform="translate(-86.57 -39.3) rotate(-30)"/><rect class="fj" x="48" y="97.82" width="14.59" height="0.06" transform="translate(-86.55 -39.32) rotate(-30)"/><rect class="fk" x="47.97" y="97.77" width="14.59" height="0.06" transform="translate(-86.53 -39.34) rotate(-30)"/><rect class="fl" x="47.94" y="97.72" width="14.59" height="0.06" transform="translate(-86.51 -39.36) rotate(-30)"/><rect class="fl" x="47.91" y="97.67" width="14.59" height="0.06" transform="translate(-86.49 -39.38) rotate(-30)"/><rect class="fm" x="47.88" y="97.63" width="14.59" height="0.06" transform="translate(-86.46 -39.4) rotate(-30)"/><rect class="fm" x="47.85" y="97.58" width="14.59" height="0.06" transform="translate(-86.44 -39.42) rotate(-30)"/><rect class="fn" x="47.83" y="97.53" width="14.59" height="0.06" transform="translate(-86.42 -39.44) rotate(-30)"/><rect class="fn" x="47.8" y="97.48" width="14.59" height="0.06" transform="translate(-86.4 -39.47) rotate(-30)"/><rect class="fn" x="47.74" y="97.33" width="14.59" height="0.16" transform="translate(-86.36 -39.5) rotate(-30)"/><rect class="fn" x="47.66" y="97.2" width="14.59" height="0.16" transform="translate(-86.3 -39.56) rotate(-30)"/><rect class="fn" x="47.59" y="97.06" width="14.59" height="0.16" transform="translate(-86.25 -39.62) rotate(-30)"/><rect class="fn" x="47.51" y="96.92" width="14.59" height="0.16" transform="translate(-86.19 -39.68) rotate(-30)"/><rect class="fo" x="47.43" y="96.78" width="14.59" height="0.16" transform="translate(-86.13 -39.74) rotate(-30)"/><rect class="fp" x="47.35" y="96.65" width="14.59" height="0.16" transform="translate(-86.07 -39.8) rotate(-30)"/><rect class="fp" x="47.27" y="96.51" width="14.59" height="0.16" transform="translate(-86.01 -39.85) rotate(-30)"/><rect class="fp" x="47.19" y="96.37" width="14.59" height="0.16" transform="translate(-85.96 -39.91) rotate(-30)"/><rect class="fq" x="47.11" y="96.23" width="14.59" height="0.16" transform="translate(-85.9 -39.97) rotate(-30)"/><rect class="fr" x="47.03" y="96.1" width="14.59" height="0.16" transform="translate(-85.84 -40.03) rotate(-30)"/><rect class="fs" x="46.95" y="95.96" width="14.59" height="0.16" transform="translate(-85.78 -40.09) rotate(-30)"/><rect class="fs" x="46.87" y="95.82" width="14.59" height="0.16" transform="translate(-85.72 -40.14) rotate(-30)"/><rect class="ft" x="46.79" y="95.68" width="14.59" height="0.16" transform="translate(-85.67 -40.2) rotate(-30)"/><rect class="ft" x="46.71" y="95.55" width="14.59" height="0.16" transform="translate(-85.61 -40.26) rotate(-30)"/><rect class="fu" x="46.63" y="95.41" width="14.59" height="0.16" transform="translate(-85.55 -40.32) rotate(-30)"/><rect class="fv" x="46.55" y="95.27" width="14.59" height="0.16" transform="translate(-85.49 -40.38) rotate(-30)"/><rect class="fw" x="46.47" y="95.13" width="14.59" height="0.16" transform="translate(-85.43 -40.43) rotate(-30)"/><rect class="fx" x="46.4" y="95" width="14.59" height="0.16" transform="translate(-85.38 -40.49) rotate(-30)"/><rect class="fy" x="46.32" y="94.86" width="14.59" height="0.16" transform="translate(-85.32 -40.55) rotate(-30)"/><rect class="fy" x="46.24" y="94.72" width="14.59" height="0.16" transform="translate(-85.26 -40.61) rotate(-30)"/><rect class="fz" x="46.16" y="94.58" width="14.59" height="0.16" transform="translate(-85.2 -40.67) rotate(-30)"/><rect class="ga" x="46.08" y="94.45" width="14.59" height="0.16" transform="translate(-85.14 -40.72) rotate(-30)"/><rect class="gb" x="46" y="94.31" width="14.59" height="0.16" transform="translate(-85.09 -40.78) rotate(-30)"/><rect class="gc" x="45.92" y="94.17" width="14.59" height="0.16" transform="translate(-85.03 -40.84) rotate(-30)"/><rect class="gd" x="45.84" y="94.04" width="14.59" height="0.16" transform="translate(-84.97 -40.9) rotate(-30)"/><polygon class="ge" points="1.75 17.62 1.67 17.48 14.19 10.25 14.35 10.25 14.38 10.32 1.75 17.62"/><polygon class="gf" points="1.67 17.48 1.59 17.34 13.87 10.25 14.19 10.25 1.67 17.48"/><polygon class="gg" points="1.59 17.34 1.51 17.21 13.55 10.25 13.87 10.25 1.59 17.34"/><polygon class="gh" points="1.51 17.21 1.43 17.07 13.23 10.25 13.55 10.25 1.51 17.21"/><polygon class="gi" points="1.43 17.07 1.35 16.93 12.92 10.25 13.23 10.25 1.43 17.07"/><polygon class="gj" points="1.35 16.93 1.27 16.79 12.6 10.25 12.92 10.25 1.35 16.93"/><polygon class="gk" points="1.27 16.79 1.19 16.66 12.28 10.25 12.6 10.25 1.27 16.79"/><polygon class="gl" points="1.19 16.66 1.11 16.52 11.96 10.25 12.28 10.25 1.19 16.66"/><polygon class="gm" points="1.11 16.52 1.03 16.38 11.65 10.25 11.96 10.25 1.11 16.52"/><polygon class="gn" points="1.03 16.38 0.95 16.24 11.33 10.25 11.65 10.25 1.03 16.38"/><polygon class="go" points="0.95 16.24 0.88 16.11 11.01 10.25 11.33 10.25 0.95 16.24"/><polygon class="gp" points="0.88 16.11 0.8 15.97 10.7 10.25 11.01 10.25 0.88 16.11"/><polygon class="gq" points="0.8 15.97 0.72 15.83 10.38 10.25 10.7 10.25 0.8 15.97"/><polygon class="gr" points="0.72 15.83 0.67 15.75 0.67 15.68 10.06 10.25 10.38 10.25 0.72 15.83"/><polygon class="gs" points="0.67 15.49 9.74 10.25 10.06 10.25 0.67 15.68 0.67 15.49"/><polygon class="gt" points="0.67 15.31 9.43 10.25 9.74 10.25 0.67 15.49 0.67 15.31"/><polygon class="gu" points="0.67 15.13 9.11 10.25 9.43 10.25 0.67 15.31 0.67 15.13"/><polygon class="gv" points="0.67 14.94 8.79 10.25 9.11 10.25 0.67 15.13 0.67 14.94"/><polygon class="gw" points="0.67 14.76 8.47 10.25 8.79 10.25 0.67 14.94 0.67 14.76"/><polygon class="gx" points="0.67 14.58 8.16 10.25 8.47 10.25 0.67 14.76 0.67 14.58"/><polygon class="gy" points="0.67 14.39 7.84 10.25 8.16 10.25 0.67 14.58 0.67 14.39"/><polygon class="gz" points="0.67 14.21 7.52 10.25 7.84 10.25 0.67 14.39 0.67 14.21"/><polygon class="ha" points="0.67 14.03 7.21 10.25 7.52 10.25 0.67 14.21 0.67 14.03"/><polygon class="hb" points="0.67 13.85 6.89 10.25 7.21 10.25 0.67 14.03 0.67 13.85"/><polygon class="hc" points="0.67 13.66 6.57 10.25 6.89 10.25 0.67 13.85 0.67 13.66"/><polygon class="hd" points="0.67 13.48 6.25 10.25 6.57 10.25 0.67 13.66 0.67 13.48"/><polygon class="he" points="0.67 13.29 5.93 10.25 6.25 10.25 0.67 13.48 0.67 13.29"/><polygon class="hf" points="0.67 13.11 5.62 10.25 5.93 10.25 0.67 13.29 0.67 13.11"/><polygon class="hg" points="0.67 12.93 5.3 10.25 5.62 10.25 0.67 13.11 0.67 12.93"/><polygon class="hh" points="0.67 12.75 4.98 10.25 5.3 10.25 0.67 12.93 0.67 12.75"/><polygon class="hi" points="0.67 12.56 4.67 10.25 4.98 10.25 0.67 12.75 0.67 12.56"/><polygon class="hj" points="0.67 12.38 4.35 10.25 4.67 10.25 0.67 12.56 0.67 12.38"/><polygon class="hk" points="0.67 12.2 4.03 10.25 4.35 10.25 0.67 12.38 0.67 12.2"/><polygon class="hl" points="0.67 12.01 3.71 10.25 4.03 10.25 0.67 12.2 0.67 12.01"/><polygon class="hl" points="3.71 10.25 0.67 12.01 0.67 10.25 3.71 10.25"/></g><g class="jh"><polygon class="au" points="11.15 20.47 11.46 19.92 11.46 20.47 11.15 20.47"/><polygon class="au" points="11.07 20.47 11.46 19.79 11.46 19.92 11.15 20.47 11.07 20.47"/><polygon class="au" points="11 20.47 11.46 19.68 11.46 19.68 11.46 19.79 11.07 20.47 11 20.47"/><polygon class="au" points="10.93 20.47 11.4 19.64 11.46 19.68 11 20.47 10.93 20.47"/><polygon class="au" points="10.85 20.47 11.35 19.61 11.4 19.64 10.93 20.47 10.85 20.47"/><polygon class="hn" points="10.78 20.47 11.29 19.58 11.35 19.61 10.85 20.47 10.78 20.47"/><polygon class="ho" points="10.7 20.47 11.23 19.55 11.29 19.58 10.78 20.47 10.7 20.47"/><polygon class="hp" points="10.63 20.47 11.18 19.52 11.23 19.55 10.7 20.47 10.63 20.47"/><polygon class="hq" points="10.56 20.47 11.13 19.48 11.18 19.52 10.63 20.47 10.56 20.47"/><polygon class="hq" points="10.48 20.47 11.07 19.45 11.13 19.48 10.56 20.47 10.48 20.47"/><polygon class="hq" points="10.41 20.47 11.01 19.42 11.07 19.45 10.48 20.47 10.41 20.47"/><polygon class="hr" points="10.34 20.47 10.96 19.39 11.01 19.42 10.41 20.47 10.34 20.47"/><polygon class="hs" points="10.26 20.47 10.9 19.36 10.96 19.39 10.34 20.47 10.26 20.47"/><polygon class="hs" points="10.19 20.47 10.85 19.32 10.9 19.36 10.26 20.47 10.19 20.47"/><polygon class="ht" points="10.12 20.47 10.79 19.29 10.85 19.32 10.19 20.47 10.12 20.47"/><polygon class="ht" points="10.04 20.47 10.74 19.26 10.79 19.29 10.12 20.47 10.04 20.47"/><polygon class="hu" points="9.97 20.47 10.68 19.23 10.74 19.26 10.04 20.47 9.97 20.47"/><polygon class="hv" points="9.89 20.47 10.63 19.2 10.68 19.23 9.97 20.47 9.89 20.47"/><polygon class="hw" points="9.82 20.47 10.57 19.16 10.63 19.2 9.89 20.47 9.82 20.47"/><polygon class="hx" points="9.75 20.47 10.52 19.13 10.57 19.16 9.82 20.47 9.75 20.47"/><polygon class="hy" points="9.67 20.47 10.46 19.1 10.52 19.13 9.75 20.47 9.67 20.47"/><polygon class="hz" points="9.6 20.47 10.41 19.07 10.46 19.1 9.67 20.47 9.6 20.47"/><polygon class="ia" points="9.53 20.47 10.34 19.06 10.39 19.06 10.41 19.07 9.6 20.47 9.53 20.47"/><polygon class="ib" points="9.45 20.47 10.26 19.06 10.34 19.06 9.53 20.47 9.45 20.47"/><polygon class="ic" points="9.38 20.47 10.19 19.06 10.26 19.06 9.45 20.47 9.38 20.47"/><polygon class="id" points="9.3 20.47 10.12 19.06 10.19 19.06 9.38 20.47 9.3 20.47"/><polygon class="ie" points="9.23 20.47 10.04 19.06 10.12 19.06 9.3 20.47 9.23 20.47"/><polygon class="if" points="9.16 20.47 9.97 19.06 10.04 19.06 9.23 20.47 9.16 20.47"/><polygon class="ig" points="9.08 20.47 9.9 19.06 9.97 19.06 9.16 20.47 9.08 20.47"/><polygon class="ih" points="9.01 20.47 9.82 19.06 9.9 19.06 9.08 20.47 9.01 20.47"/><polygon class="ii" points="8.95 20.47 8.94 20.46 9.75 19.06 9.82 19.06 9.01 20.47 8.95 20.47"/><polygon class="ij" points="8.94 20.46 8.88 20.43 9.68 19.06 9.75 19.06 8.94 20.46"/><polygon class="ik" points="8.88 20.43 8.83 20.4 9.6 19.06 9.68 19.06 8.88 20.43"/><polygon class="il" points="8.83 20.4 8.77 20.37 9.53 19.06 9.6 19.06 8.83 20.4"/><polygon class="im" points="8.77 20.37 8.72 20.34 9.45 19.06 9.53 19.06 8.77 20.37"/><polygon class="in" points="8.72 20.34 8.66 20.3 9.38 19.06 9.45 19.06 8.72 20.34"/><polygon class="io" points="8.66 20.3 8.61 20.27 9.31 19.06 9.38 19.06 8.66 20.3"/><polygon class="ip" points="8.61 20.27 8.55 20.24 9.23 19.06 9.31 19.06 8.61 20.27"/><polygon class="iq" points="8.55 20.24 8.5 20.21 9.16 19.06 9.23 19.06 8.55 20.24"/><polygon class="ir" points="8.5 20.21 8.44 20.18 9.09 19.06 9.16 19.06 8.5 20.21"/><polygon class="is" points="8.44 20.18 8.39 20.14 9.01 19.06 9.09 19.06 8.44 20.18"/><polygon class="it" points="8.39 20.14 8.33 20.11 8.94 19.06 9.01 19.06 8.39 20.14"/><polygon class="iu" points="8.33 20.11 8.28 20.08 8.86 19.06 8.94 19.06 8.33 20.11"/><polygon class="iv" points="8.28 20.08 8.22 20.05 8.79 19.06 8.86 19.06 8.28 20.08"/><polygon class="iw" points="8.22 20.05 8.16 20.02 8.72 19.06 8.79 19.06 8.22 20.05"/><polygon class="ix" points="8.16 20.02 8.11 19.98 8.64 19.06 8.72 19.06 8.16 20.02"/><polygon class="iy" points="8.11 19.98 8.05 19.95 8.57 19.06 8.64 19.06 8.11 19.98"/><polygon class="iz" points="8.05 19.95 8 19.92 8.5 19.06 8.57 19.06 8.05 19.95"/><polygon class="ja" points="8 19.92 7.94 19.89 8.42 19.06 8.5 19.06 8 19.92"/><polygon class="jb" points="7.94 19.89 7.89 19.86 8.35 19.06 8.42 19.06 7.94 19.89"/><polygon class="jc" points="7.89 19.86 7.88 19.85 7.88 19.75 8.28 19.06 8.35 19.06 7.89 19.86"/><polygon class="jd" points="7.88 19.63 8.2 19.06 8.28 19.06 7.88 19.75 7.88 19.63"/><polygon class="je" points="7.88 19.5 8.13 19.06 8.2 19.06 7.88 19.63 7.88 19.5"/><polygon class="je" points="8.13 19.06 7.88 19.5 7.88 19.06 8.13 19.06"/></g><path class="fn" d="M58.18,100a1.5,1.5,0,0,1,.3.48,1.06,1.06,0,0,1,.07.59.85.85,0,0,1-.37.53,1.33,1.33,0,0,1-.56.24,2.58,2.58,0,0,1-1.14,0,2.85,2.85,0,0,1-1-.46c.36.06.71.12,1.05.15a3.74,3.74,0,0,0,1-.06,1,1,0,0,0,.71-.46A1.72,1.72,0,0,0,58.18,100Z" transform="translate(-45.03 -80.08)"/><path class="fn" d="M58.31,98.62a11.38,11.38,0,0,1,1.91.51,6,6,0,0,1,1.61.82,1.48,1.48,0,0,1,.51.61,1.36,1.36,0,0,1,0,.2v.1l0,.1a.77.77,0,0,1-.38.35,3.49,3.49,0,0,1-1,.34,7.91,7.91,0,0,1-1.08.11c.35-.08.69-.15,1-.25a3.67,3.67,0,0,0,.87-.36c.46-.28.15-.7-.26-1a4.29,4.29,0,0,0-.67-.43c-.24-.14-.51-.26-.77-.39C59.45,99.08,58.88,98.85,58.31,98.62Z" transform="translate(-45.03 -80.08)"/><path class="ji" d="M86.39,95c.06,3.57,2.34,5,5,5a9.55,9.55,0,0,0,4-.75l.45,1.89a11.76,11.76,0,0,1-4.83.9c-4.47,0-7.14-2.94-7.14-7.32S86.45,87,90.68,87c4.74,0,6,4.17,6,6.84A10,10,0,0,1,96.59,95Zm7.74-1.89c0-1.68-.69-4.29-3.66-4.29-2.67,0-3.84,2.46-4,4.29Z" transform="translate(-45.03 -80.08)"/><path class="ji" d="M101.72,87.29l2.85,8.16a37.34,37.34,0,0,1,1.17,3.72h.09c.33-1.2.75-2.4,1.23-3.72l2.82-8.16h2.76l-5.7,14.52h-2.52L98.9,87.29Z" transform="translate(-45.03 -80.08)"/><path class="ji" d="M117.05,95c.06,3.57,2.34,5,5,5a9.55,9.55,0,0,0,4-.75l.45,1.89a11.76,11.76,0,0,1-4.83.9c-4.47,0-7.14-2.94-7.14-7.32S117.11,87,121.34,87c4.74,0,6,4.17,6,6.84a10,10,0,0,1-.09,1.23Zm7.74-1.89c0-1.68-.69-4.29-3.66-4.29-2.67,0-3.84,2.46-4,4.29Z" transform="translate(-45.03 -80.08)"/><path class="ji" d="M131.36,91.22c0-1.5,0-2.73-.12-3.93h2.34l.15,2.4h.06a5.34,5.34,0,0,1,4.8-2.73c2,0,5.13,1.2,5.13,6.18v8.67h-2.64V93.44c0-2.34-.87-4.29-3.36-4.29a3.75,3.75,0,0,0-3.54,2.7,3.8,3.8,0,0,0-.18,1.23v8.73h-2.64Z" transform="translate(-45.03 -80.08)"/><path class="ji" d="M151.82,83.12v4.17h3.78v2h-3.78v7.83c0,1.8.51,2.82,2,2.82a5.87,5.87,0,0,0,1.53-.18l.12,2a6.46,6.46,0,0,1-2.34.36,3.66,3.66,0,0,1-2.85-1.11c-.75-.78-1-2.07-1-3.78V89.3H147v-2h2.25V83.81Z" transform="translate(-45.03 -80.08)"/><path class="ji" d="M165.29,92.72v2h-7.41v-2Z" transform="translate(-45.03 -80.08)"/><path class="ji" d="M171.14,95c.06,3.57,2.34,5,5,5a9.55,9.55,0,0,0,4-.75l.45,1.89a11.76,11.76,0,0,1-4.83.9c-4.47,0-7.14-2.94-7.14-7.32S171.2,87,175.43,87c4.74,0,6,4.17,6,6.84a10,10,0,0,1-.09,1.23Zm7.74-1.89c0-1.68-.69-4.29-3.66-4.29-2.67,0-3.84,2.46-4.05,4.29Z" transform="translate(-45.03 -80.08)"/><path class="ji" d="M185.45,91.22c0-1.5,0-2.73-.12-3.93h2.31l.12,2.34h.09A5,5,0,0,1,192.41,87a4.29,4.29,0,0,1,4.11,2.91h.06A6,6,0,0,1,198.2,88a5,5,0,0,1,3.21-1c1.92,0,4.77,1.26,4.77,6.3v8.55H203.6V93.59c0-2.79-1-4.47-3.15-4.47a3.42,3.42,0,0,0-3.12,2.4,4.35,4.35,0,0,0-.21,1.32v9h-2.58v-8.7c0-2.31-1-4-3-4A3.93,3.93,0,0,0,188,93.05v8.76h-2.58Z" transform="translate(-45.03 -80.08)"/><path class="ji" d="M214.16,83.21a1.64,1.64,0,0,1-3.27,0,1.61,1.61,0,0,1,1.65-1.65A1.57,1.57,0,0,1,214.16,83.21Zm-2.94,18.6V87.29h2.64v14.52Z" transform="translate(-45.03 -80.08)"/><path class="ji" d="M222.17,83.12v4.17H226v2h-3.78v7.83c0,1.8.51,2.82,2,2.82a5.87,5.87,0,0,0,1.53-.18l.12,2a6.46,6.46,0,0,1-2.34.36,3.66,3.66,0,0,1-2.85-1.11c-.75-.78-1-2.07-1-3.78V89.3h-2.25v-2h2.25V83.81Z" transform="translate(-45.03 -80.08)"/><path class="ji" d="M232.85,83.12v4.17h3.78v2h-3.78v7.83c0,1.8.51,2.82,2,2.82a5.87,5.87,0,0,0,1.53-.18l.12,2a6.46,6.46,0,0,1-2.34.36,3.66,3.66,0,0,1-2.85-1.11c-.75-.78-1-2.07-1-3.78V89.3H228v-2h2.25V83.81Z" transform="translate(-45.03 -80.08)"/><path class="ji" d="M241.64,95c.06,3.57,2.34,5,5,5a9.55,9.55,0,0,0,4-.75l.45,1.89a11.76,11.76,0,0,1-4.83.9c-4.47,0-7.14-2.94-7.14-7.32S241.7,87,245.93,87c4.74,0,6,4.17,6,6.84a10,10,0,0,1-.09,1.23Zm7.74-1.89c0-1.68-.69-4.29-3.66-4.29-2.67,0-3.84,2.46-4.05,4.29Z" transform="translate(-45.03 -80.08)"/><path class="ji" d="M256,91.82c0-1.71,0-3.18-.12-4.53h2.31l.09,2.85h.12a4.36,4.36,0,0,1,4-3.18,2.86,2.86,0,0,1,.75.09v2.49a4,4,0,0,0-.9-.09c-1.86,0-3.18,1.41-3.54,3.39a7.43,7.43,0,0,0-.12,1.23v7.74H256Z" transform="translate(-45.03 -80.08)"/><path class="ji" d="M264.29,100.25a1.77,1.77,0,0,1,1.8-1.89,1.89,1.89,0,1,1-1.8,1.89Z" transform="translate(-45.03 -80.08)"/><path class="ji" d="M273.35,95c.06,3.57,2.34,5,5,5a9.55,9.55,0,0,0,4-.75l.45,1.89a11.76,11.76,0,0,1-4.83.9c-4.47,0-7.14-2.94-7.14-7.32S273.41,87,277.64,87c4.74,0,6,4.17,6,6.84a10,10,0,0,1-.09,1.23Zm7.74-1.89c0-1.68-.69-4.29-3.66-4.29-2.67,0-3.84,2.46-4.05,4.29Z" transform="translate(-45.03 -80.08)"/><path class="ji" d="M287.66,80.51h2.64v21.3h-2.64Z" transform="translate(-45.03 -80.08)"/><path class="ji" d="M298.67,83.12v4.17h3.78v2h-3.78v7.83c0,1.8.51,2.82,2,2.82a5.87,5.87,0,0,0,1.53-.18l.12,2a6.46,6.46,0,0,1-2.34.36,3.66,3.66,0,0,1-2.85-1.11c-.75-.78-1-2.07-1-3.78V89.3h-2.25v-2h2.25V83.81Z" transform="translate(-45.03 -80.08)"/><path class="ji" d="M307.46,95c.06,3.57,2.34,5,5,5a9.55,9.55,0,0,0,4-.75l.45,1.89a11.76,11.76,0,0,1-4.83.9c-4.47,0-7.14-2.94-7.14-7.32S307.52,87,311.75,87c4.74,0,6,4.17,6,6.84a10,10,0,0,1-.09,1.23Zm7.74-1.89c0-1.68-.69-4.29-3.66-4.29-2.67,0-3.84,2.46-4.05,4.29Z" transform="translate(-45.03 -80.08)"/><path class="ji" d="M322.91,87.29,325,90.41c.54.81,1,1.56,1.47,2.37h.09c.48-.87,1-1.62,1.44-2.4l2-3.09h2.85l-4.95,7,5.1,7.5h-3l-2.13-3.27c-.57-.84-1.05-1.65-1.56-2.52h-.06c-.48.87-1,1.65-1.53,2.52l-2.1,3.27h-2.91l5.16-7.41L320,87.29Z" transform="translate(-45.03 -80.08)"/><path class="ji" d="M335.69,100.25a1.77,1.77,0,0,1,1.8-1.89,1.89,1.89,0,1,1-1.8,1.89Z" transform="translate(-45.03 -80.08)"/><path class="ji" d="M343.28,80.51h2.64v21.3h-2.64Z" transform="translate(-45.03 -80.08)"/><path class="ji" d="M364.25,94.43c0,5.37-3.72,7.71-7.23,7.71-3.93,0-7-2.88-7-7.47,0-4.86,3.18-7.71,7.2-7.71C361.43,87,364.25,90,364.25,94.43Zm-11.52.15c0,3.18,1.83,5.58,4.41,5.58s4.41-2.37,4.41-5.64c0-2.46-1.23-5.58-4.35-5.58S352.73,91.82,352.73,94.58Z" transform="translate(-45.03 -80.08)"/><path class="ji" d="M378.67,101.27a9.63,9.63,0,0,1-4.16.84c-4.38,0-7.23-3-7.23-7.41a7.38,7.38,0,0,1,7.8-7.71,8.82,8.82,0,0,1,3.66.75l-.61,2a6.08,6.08,0,0,0-3.05-.69c-3.33,0-5.13,2.46-5.13,5.49,0,3.36,2.16,5.43,5,5.43a7.5,7.5,0,0,0,3.24-.72Z" transform="translate(-45.03 -80.08)"/></svg>