<svg xmlns="http://www.w3.org/2000/svg" viewBox="0 0 363.61 662.19"><defs><style>.cls-1{fill:#f8bd00;}.cls-2{fill:#c36700;}.cls-11,.cls-3,.cls-9{fill:#fff;}.cls-4{fill:#001830;}.cls-5{fill:#183664;}.cls-6{fill:#93ade3;}.cls-7{fill:#f19500;}.cls-8{fill:#ffe5a4;}.cls-9{stroke:#c36700;}.cls-10,.cls-11,.cls-9{stroke-miterlimit:10;stroke-width:2px;}.cls-10{fill:none;stroke:#fff;}.cls-11{stroke:#93ade3;}</style></defs><g id="Обсудить"><ellipse class="cls-1" cx="106.13" cy="260.34" rx="29.72" ry="93.78" transform="translate(-168.85 201.82) rotate(-55.81)"/><ellipse class="cls-2" cx="104.83" cy="262.72" rx="22.31" ry="84.96" transform="translate(-171.39 201.78) rotate(-55.81)"/><ellipse class="cls-3" cx="105.68" cy="260.97" rx="20.39" ry="83.71" transform="translate(-169.58 201.72) rotate(-55.81)"/><path class="cls-4" d="M86.58,250.19a2.36,2.36,0,0,1,.28-.6c1.89-2.78,10.16-.46,18.48,5.19s13.52,12.48,11.63,15.27a2.46,2.46,0,0,1-1.37.95c-3.17,1-10.12-1.4-17.1-6.14C90.72,259.58,85.66,253.26,86.58,250.19Z"/><path class="cls-5" d="M87.19,250c3.08-1,9.85,1.44,16.67,6.15,7.59,5.25,12.53,11.51,11.66,14.53-3.08,1-9.85-1.42-16.67-6.14C91.26,259.29,86.31,253,87.19,250Z"/><path class="cls-6" d="M127.87,289.76a102.53,102.53,0,0,0,13.56,5.61,46,46,0,0,0,7,1.69,15.88,15.88,0,0,0,6.85-.16,3.18,3.18,0,0,0,2.16-1.71,5.73,5.73,0,0,0,.16-3.08,23,23,0,0,0-2.47-6.61,82.09,82.09,0,0,0-8.21-12.13,51.77,51.77,0,0,1,9.57,11.36,22.63,22.63,0,0,1,3,7,7.35,7.35,0,0,1-.22,4.18,6.86,6.86,0,0,1-.58,1,5,5,0,0,1-.82.83,6.4,6.4,0,0,1-1.94,1,12.63,12.63,0,0,1-4,.5,22.88,22.88,0,0,1-3.81-.38,40.24,40.24,0,0,1-7.23-2.08A58.81,58.81,0,0,1,127.87,289.76Z"/><path class="cls-6" d="M118.77,278.71c2.25.44,4.44,1,6.63,1.46s4.35,1,6.52,1.27a18.46,18.46,0,0,0,3.2.25,6.33,6.33,0,0,0,2.86-.53,2.46,2.46,0,0,0,1.28-2.24,11.82,11.82,0,0,0-.38-3.28,8.12,8.12,0,0,1,1.36,3.23,4.1,4.1,0,0,1-.14,1.95,3.52,3.52,0,0,1-1.27,1.65,7.06,7.06,0,0,1-3.63,1.12,20,20,0,0,1-3.56-.17,34,34,0,0,1-6.68-1.75A34.49,34.49,0,0,1,118.77,278.71Z"/><path class="cls-6" d="M55.68,238.09a38.93,38.93,0,0,1-6.5-6,28.87,28.87,0,0,1-4.84-7.59,11.18,11.18,0,0,1-.93-4.66,5.54,5.54,0,0,1,.22-1.27l.2-.64.34-.59a4.1,4.1,0,0,1,2-1.68,9.88,9.88,0,0,1,4.61-.59,20,20,0,0,1,4.37.88,37,37,0,0,0-4.36.1,10.19,10.19,0,0,0-3.94,1c-2.26,1.11-1.74,4.22-.68,6.69a24.5,24.5,0,0,0,1.89,3.76c.69,1.25,1.52,2.41,2.32,3.61C52.06,233.49,53.87,235.76,55.68,238.09Z"/><path class="cls-6" d="M59,230.4a7.94,7.94,0,0,1-1-2.59,5.39,5.39,0,0,1,.21-3,4.42,4.42,0,0,1,2.31-2.24,7.17,7.17,0,0,1,2.94-.65A12.61,12.61,0,0,1,69,223.12a14,14,0,0,1,4.5,3.15c-1.71-.63-3.36-1.25-5-1.68a18.11,18.11,0,0,0-4.94-.66c-1.59,0-3.19.48-3.92,1.58S58.87,228.61,59,230.4Z"/><path class="cls-2" d="M50.27,185.35c-.6-1.78-2.63-3.32-4.19-3-2.2.47-2.86,4.51-2.84,6.65a12.1,12.1,0,0,0,3.48,8c.34-.92,1.12-3,2.15-5.67C50.28,187.65,50.7,186.62,50.27,185.35Z"/><path class="cls-2" d="M19.27,196.29c-1-2.73-.76-6.43.59-6.92s3.67,2.29,4.78,4.53a12.72,12.72,0,0,1,.81,8.49C24.37,201.93,20.65,200.2,19.27,196.29Z"/><path class="cls-2" d="M11.22,205.79c-1.52-2.13-2.77-5.63-1.57-6.71,1-.87,3.27.07,4.48.83,4.38,2.74,4.42,9.3,4.41,10.47A12.24,12.24,0,0,1,11.22,205.79Z"/><path class="cls-2" d="M9.54,220.51c-2-1.23-4.43-3.85-3.74-5.47.55-1.29,2.87-1.52,4.06-1.47,5.22.21,8.45,6.55,8.9,7.47C17.55,221.45,13.25,222.75,9.54,220.51Z"/><rect class="cls-2" x="202.09" y="219.04" width="15.55" height="27.83" rx="5.68" transform="translate(419.73 465.91) rotate(-180)"/><rect class="cls-2" x="195.55" y="522.73" width="23.58" height="51.97" rx="9.56" transform="translate(414.67 1097.43) rotate(-180)"/><path class="cls-6" d="M188.51,591.53a58.17,58.17,0,0,0,40.12-6.3c-.34.68-6.62,12.79-20.17,13.94C197.06,600.14,189.51,592.57,188.51,591.53Z"/><path class="cls-6" d="M185.9,616a64.46,64.46,0,0,0,52.59-9.3c-.42.9-8.38,17-26.16,18.84C197.36,627,187.25,617.29,185.9,616Z"/><path class="cls-6" d="M175.2,644.44a94,94,0,0,0,79.32-14.23c-6.27,13.47-21.75,23.61-39.38,25.83C190.77,659.1,176.08,645.29,175.2,644.44Z"/><path class="cls-7" d="M178.17,295.09q0,.51,0,1h0q3,108.17,6.1,216.34c-.07,1.6-.38,11.59,7.44,19.26a24.8,24.8,0,0,0,8.69,5.52,26,26,0,0,0,7.34,1.58c4.16-.53,9.87-2,14.48-6.29,5.45-5.09,7.11-12.09,7.71-16.94a.17.17,0,0,0,0-.07c.16-1.33.24-2.49.3-3.4,1.13-17.28,4.16-101.12,7.08-216h0q0-.51,0-1V253.86A20.28,20.28,0,0,0,217,233.57H198.45a20.31,20.31,0,0,0-20.28,20.29Z"/><path class="cls-1" d="M178.17,253.86v41.23q0,.51,0,1h0q3,108.17,6.1,216.34c-.07,1.6-.38,11.59,7.44,19.26a24.69,24.69,0,0,0,7.29,4.94c.47.22.94.41,1.4.58a22.68,22.68,0,0,0,7.82-4.71c5.45-5.09,7.11-12.09,7.71-16.94a.17.17,0,0,0,0-.07c1.34-26.83,4.07-105.35,6.71-209.26h0q0-.51,0-1V264a20.28,20.28,0,0,0-20.28-20.29h-15a9.73,9.73,0,0,0-7.1,3.4A9.54,9.54,0,0,0,178.17,253.86Z"/><path class="cls-8" d="M178.17,269v26.08q0,.51,0,1h0q3,108.17,6.1,216.34c-.07,1.6-.38,11.59,7.44,19.26a24.34,24.34,0,0,0,7,4.79l.32.15a17.16,17.16,0,0,0,3.08-2.62c5.46-5.87,6.06-14.54,6.27-18.37.89-15.55,3.26-91,5.55-194.41h0c0-.3,0-.61,0-.92V283.22c0-10.09-7.11-18.26-15.88-18.26H183.47a4.88,4.88,0,0,0-3.63,1A4.82,4.82,0,0,0,178.17,269Z"/><path class="cls-7" d="M178.17,295.09q0,.51,0,1h0q3,108.17,6.1,216.34c-.07,1.6-.38,11.59,7.44,19.26a24.34,24.34,0,0,0,7,4.79,15.6,15.6,0,0,0,2.34-2.22c4.95-5.73,5.5-14.21,5.69-17.95.8-15.2,2.95-88.94,5-190h0c0-.29,0-.59,0-.89V289.18c0-9.86-6.45-17.84-14.4-17.84H184.15a5.73,5.73,0,0,0-4.3,1.2,5.41,5.41,0,0,0-1.68,2.57Z"/><ellipse class="cls-9" cx="189.3" cy="294.81" rx="9.79" ry="13.69"/><polygon class="cls-5" points="185.14 303.19 185.31 294.81 185.48 286.44 189.8 290.8 194.11 295.16 189.63 299.17 185.14 303.19"/><path class="cls-1" d="M107.4,154.06c1.18,8.27,6.61,14,10.15,17.35,31,29.45,96,49.65,102.73,51.7,12.13,3.7,20.46,5.79,33,9,67,17.27,84,15.55,93.86,6.52a27.69,27.69,0,0,0,5.6-7.24,137.84,137.84,0,0,0,4.9-17.79c1.25-6.15,7-36.59-4.61-73.72C341.19,102.05,317.47,77,301.39,64.48a106.56,106.56,0,0,0-25.08-14.75,114.67,114.67,0,0,0-34.81-7c-26-.84-62.65,14.76-95.17,46.69A275.45,275.45,0,0,0,114,132C110.13,138.33,106.19,145.49,107.4,154.06Z"/><path class="cls-4" d="M118.89,149.13c1.27,7.54,7.25,12.37,10.65,15,29.64,22.75,73.27,38.71,73.27,38.71,18.51,6.78,30,10.18,43.58,14.17,25.5,7.48,37.24,7.3,50.62,8.93,6.43.78,15.05.65,22.36-4.15C342,206.9,331,155.4,329.76,149.5c-1.75-8.23-14.32-62.9-62.72-86a73.18,73.18,0,0,0-17.45-6.29c-37.64-8-70.72,18.34-94.93,37.62,0,0-13.81,11-29.88,35.53C121.43,135.45,117.65,141.81,118.89,149.13Z"/><path class="cls-5" d="M118.82,149.64c1.24,7.34,7.06,12.05,10.37,14.59,28.85,22.14,71.32,37.68,71.32,37.68,18,6.6,29.21,9.91,42.43,13.79,24.83,7.29,36.26,7.11,49.28,8.7,6.27.76,14.66.63,21.77-4.05,22-14.47,11.35-64.6,10.12-70.35-1.71-8-13.95-61.23-61.07-83.73a70.8,70.8,0,0,0-17-6.12C209.42,52.34,177.21,78,153.65,96.77c0,0-13.45,10.71-29.1,34.59C121.29,136.33,117.61,142.51,118.82,149.64Z"/><path class="cls-4" d="M220.26,190.45a73,73,0,0,0-36.52-15.22c8.56-11,20.09-15.4,26.84-11.88,5.52,2.88,7.76,11,8.68,14.33A34.22,34.22,0,0,1,220.26,190.45Z"/><path class="cls-6" d="M220.3,190.54c-.33-.19-.81-.46-1.16-.69l-1-.68c-.7-.45-1.41-.88-2.13-1.3-1.42-.87-2.86-1.68-4.31-2.48a92.57,92.57,0,0,0-9-4.24c-3-1.24-6.13-2.42-9.29-3.42a52.81,52.81,0,0,0-9.7-2.2l-.55-.07.34-.42a62.87,62.87,0,0,1,5.2-5.76,37,37,0,0,1,6.17-4.79,23.81,23.81,0,0,1,7.37-2.94,13.72,13.72,0,0,1,8.14.56,10.72,10.72,0,0,1,3.48,2.36,16.12,16.12,0,0,1,2.51,3.23,30.61,30.61,0,0,1,3,7.32c.34,1.26.65,2.5.91,3.8a32.06,32.06,0,0,1,.49,3.89,28.21,28.21,0,0,1,0,3.9c0,.65-.1,1.3-.17,1.94A12.37,12.37,0,0,1,220.3,190.54Zm-.08-.18a13.6,13.6,0,0,1-.05-1.84c0-.64,0-1.27-.07-1.91-.1-1.27-.22-2.53-.42-3.77a43.24,43.24,0,0,0-2-7.3,32.65,32.65,0,0,0-3.11-6.75,12,12,0,0,0-5.08-4.74,11.79,11.79,0,0,0-7-.66,24.52,24.52,0,0,0-7,2.41A34.13,34.13,0,0,0,184,175.41l-.2-.49c3.32.42,6.66.87,9.95,1.58a52.45,52.45,0,0,1,9.66,3,62.15,62.15,0,0,1,9,4.71q2.13,1.37,4.14,2.9c.66.52,1.31,1.06,1.95,1.6l1,.82C219.72,189.79,219.89,190,220.22,190.36Z"/><path class="cls-10" d="M293.74,21.74c-5.16,1.49-6.82,3.5-7.32,5.15-.66,2.2.63,4.11-.64,5.43s-2.92.31-4.8,1.67a5.72,5.72,0,0,0-2,3"/><path class="cls-6" d="M276.12,36.15l-2.05,6.53,5.32,1.67,2.05-6.53a1.26,1.26,0,0,0-.83-1.58l-2.9-.91A1.27,1.27,0,0,0,276.12,36.15Z"/><path class="cls-5" d="M265,38.65l-2.69,7a132.31,132.31,0,0,1,13.13,4.3q4.59,1.77,9,3.86L287,47.14a1.16,1.16,0,0,0-.67-1.51L266.48,38A1.18,1.18,0,0,0,265,38.65Z"/><path class="cls-7" d="M241.5,42.68a57.72,57.72,0,0,1-4.16,20.24,19.64,19.64,0,0,0-2.09,9.73,14.08,14.08,0,0,0,3.68,8.87c1.75,1.78,3.76,2.51,7.72,3.89,4.78,1.67,7.17,2.5,10.21,2.46a21.94,21.94,0,0,0,13.07-4.8c.21-.16.41-.33.46-.38.74-.68,1.58-1.78,5.44-6.66,6.7-8.48,8.18-10.28,10.7-12.36a35.3,35.3,0,0,1,6.86-4.42,94,94,0,0,0-18.46-10.09c-3.54-1.43-6.81-2.48-8.53-3A74.44,74.44,0,0,0,254,42.93,51.25,51.25,0,0,0,241.5,42.68Z"/><path class="cls-7" d="M296.76,9.16a9.11,9.11,0,0,0-5.58,11.61,9.12,9.12,0,0,0,11.61,5.58,9.1,9.1,0,0,0,5.58-11.6,9,9,0,0,0-2.23-3.51A9.12,9.12,0,0,0,296.76,9.16Z"/><path class="cls-1" d="M295.3,12a9.12,9.12,0,0,0,.7,12.87,9.25,9.25,0,0,0,3.65,2A9.11,9.11,0,0,0,305.91,11a9.25,9.25,0,0,0-3.65-2A9.12,9.12,0,0,0,295.3,12Z"/><path class="cls-3" d="M131,79.8a51.12,51.12,0,0,0-8.64,29.75,50.69,50.69,0,0,0,1,5.34s0,0,0,0A51.45,51.45,0,0,0,223.3,96.62c-.24-1.79-.56-3.57-1-5.34l-.13-.36A51.45,51.45,0,0,0,131,79.8Z"/><path class="cls-6" d="M128.55,73.07a52,52,0,0,0-8.79,30.24,51.4,51.4,0,0,0,1.38,10.76,52.3,52.3,0,1,0,7.41-41Z"/><path class="cls-3" d="M129.5,74.73a51.2,51.2,0,0,0-8.64,29.75,51.09,51.09,0,0,0,2.49,10.41s0,0,0,0A51.45,51.45,0,0,0,223.3,96.62c-.24-1.79-.56-3.57-1-5.34A51.45,51.45,0,0,0,129.5,74.73Z"/><circle class="cls-4" cx="176.4" cy="117.66" r="30.61" transform="translate(-29.85 166.88) rotate(-47.12)"/><circle class="cls-3" cx="167.16" cy="95.98" r="8.73" transform="translate(-3.64 185.33) rotate(-57.48)"/><circle class="cls-8" cx="302.35" cy="15.12" r="4.11"/><path class="cls-3" d="M338.24,157.28a51.18,51.18,0,0,1-15.08,27.06,52.39,52.39,0,0,1-4.5,3.06h0a51.45,51.45,0,0,1-57.23-83.95,53.56,53.56,0,0,1,4.48-3.06l.35-.16a51.45,51.45,0,0,1,72,57Z"/><path class="cls-6" d="M344.75,154.29a52,52,0,0,1-15.33,27.51,51.05,51.05,0,0,1-8.62,6.58,52.3,52.3,0,1,1,23.95-34.09Z"/><path class="cls-3" d="M342.9,154.78a51.17,51.17,0,0,1-15.08,27.06,51.8,51.8,0,0,1-9.16,5.56h0a51.45,51.45,0,0,1-57.23-83.95,53.56,53.56,0,0,1,4.48-3.06,55.79,55.79,0,0,1,5-2.66,51.46,51.46,0,0,1,72,57Z"/><circle class="cls-4" cx="279.4" cy="151.6" r="30.61" transform="translate(115.94 424.24) rotate(-87.54)"/><circle class="cls-3" cx="300.33" cy="141.88" r="8.73" transform="translate(95.38 403.26) rotate(-77.19)"/><ellipse class="cls-1" cx="283.54" cy="362.7" rx="29.72" ry="93.78" transform="translate(-134.97 170.88) rotate(-27.36)"/><ellipse class="cls-2" cx="285.82" cy="361.23" rx="22.31" ry="84.96" transform="translate(-134.04 171.76) rotate(-27.36)"/><ellipse class="cls-3" cx="284.24" cy="362.35" rx="20.39" ry="83.71" transform="translate(-134.73 171.16) rotate(-27.36)"/><path class="cls-4" d="M295.89,380.94a2.27,2.27,0,0,1-.53.39c-3,1.55-9.15-4.43-13.77-13.37s-5.94-17.41-3-19a2.43,2.43,0,0,1,1.66-.18c3.27.62,8.24,6,12.11,13.54C296.73,370.71,298.17,378.68,295.89,380.94Z"/><path class="cls-5" d="M295.27,380.81c-3.17-.62-8-6-11.73-13.34-4.17-8.23-5.53-16.1-3.33-18.34,3.17.61,8,5.94,11.73,13.34C296.11,370.7,297.49,378.57,295.27,380.81Z"/><path class="cls-6" d="M278.44,326.47a102.38,102.38,0,0,0-9.25-11.39,47,47,0,0,0-5.37-4.83,15.76,15.76,0,0,0-6.1-3.12,3.18,3.18,0,0,0-2.71.47,5.72,5.72,0,0,0-1.61,2.64,23.26,23.26,0,0,0-1,7,82,82,0,0,0,1.45,14.57,51.58,51.58,0,0,1-3-14.55,22.7,22.7,0,0,1,.74-7.6,7.29,7.29,0,0,1,2.19-3.57,6.42,6.42,0,0,1,1-.62,4.58,4.58,0,0,1,1.11-.34,6.35,6.35,0,0,1,2.18,0,12.65,12.65,0,0,1,3.72,1.45,22.44,22.44,0,0,1,3.18,2.15,40.54,40.54,0,0,1,5.36,5.28A59.13,59.13,0,0,1,278.44,326.47Z"/><path class="cls-6" d="M281.18,340.52c-1.77-1.46-3.45-3-5.13-4.44s-3.37-2.93-5.13-4.22a19.72,19.72,0,0,0-2.7-1.75,6.37,6.37,0,0,0-2.76-.89,2.45,2.45,0,0,0-2.2,1.36,12,12,0,0,0-1.23,3.06,8.39,8.39,0,0,1,.34-3.49,4.2,4.2,0,0,1,1.06-1.64,3.47,3.47,0,0,1,1.9-.85,7.07,7.07,0,0,1,3.73.75,18.91,18.91,0,0,1,3,1.84,33.36,33.36,0,0,1,5,4.73A34.24,34.24,0,0,1,281.18,340.52Z"/><path class="cls-6" d="M317.3,406.29a38.35,38.35,0,0,1,2.85,8.38,28.64,28.64,0,0,1,.64,9,11.19,11.19,0,0,1-1.4,4.54,5.53,5.53,0,0,1-.8,1l-.48.46c-.19.13-.39.24-.58.36a4,4,0,0,1-2.58.5,9.86,9.86,0,0,1-4.34-1.67,19.61,19.61,0,0,1-3.42-2.85,40.64,40.64,0,0,0,3.88,2,10.14,10.14,0,0,0,3.95,1c2.51.1,3.54-2.88,3.78-5.55a24.57,24.57,0,0,0,.14-4.21c0-1.42-.2-2.85-.32-4.28C318.29,412.06,317.78,409.2,317.3,406.29Z"/><path class="cls-6" d="M310.68,411.46a7.72,7.72,0,0,1-.33,2.76,5.3,5.3,0,0,1-1.6,2.52,4.48,4.48,0,0,1-3.1.88,7.51,7.51,0,0,1-2.89-.83,12.94,12.94,0,0,1-4.31-3.68,14.29,14.29,0,0,1-2.45-4.92,52,52,0,0,0,3.62,3.87,17.53,17.53,0,0,0,4,2.94c1.41.72,3,1.09,4.2.48S310,413.11,310.68,411.46Z"/><path class="cls-2" d="M296.94,455.24c-.32,1.85.72,4.17,2.26,4.62,2.16.63,4.66-2.6,5.66-4.5a12.09,12.09,0,0,0,.74-8.66l-4.59,4C298,453.22,297.16,453.92,296.94,455.24Z"/><path class="cls-2" d="M329.4,460.39c-.45,2.86-2.39,6-3.81,5.8s-2.14-3.76-2-6.26a12.79,12.79,0,0,1,3.33-7.84C327.6,453,330.05,456.29,329.4,460.39Z"/><path class="cls-2" d="M341,455.87c.32,2.6-.25,6.27-1.82,6.64-1.27.31-2.84-1.61-3.55-2.86-2.54-4.49.55-10.28,1.12-11.3A12.3,12.3,0,0,1,341,455.87Z"/><path class="cls-2" d="M349.49,443.73c1.21,2,2.07,5.49.68,6.59-1.1.87-3.24,0-4.26-.64-4.49-2.67-4.31-9.78-4.27-10.81C342.9,439.09,347.3,440,349.49,443.73Z"/><path class="cls-11" d="M45.79,130.72a62.43,62.43,0,0,0-25.55,27.1c-10.67,22.29-3.85,43.29-2.33,47.65l120,56.09a35.23,35.23,0,0,1,13.16-44.13Z"/><path class="cls-6" d="M50.87,207.1,63.59,205c-1.39-2.3-5.3-9.47-2.79-16.78.11-.31,2.36-6.67,5.49-6.62,1.91,0,3.28,2.43,6.17,8.4,5.4,11.13,5.85,13.5,7.83,16.73,2.25,3.65,6.42,8.32,14.88,12l3.07-4.93a42.68,42.68,0,0,1-11.76-11.88c-6.45-9.89-4.2-16.09-11-24.14-1-1.13-9.24-11-17.25-8.91-7.83,2-10.09,14.15-10.63,17.09A33.94,33.94,0,0,0,50.87,207.1Z"/><ellipse class="cls-6" cx="105.88" cy="220.57" rx="4.45" ry="6.11" transform="translate(-137.34 193.97) rotate(-58.12)"/></g></svg>