<svg xmlns="http://www.w3.org/2000/svg" xmlns:xlink="http://www.w3.org/1999/xlink" viewBox="0 0 389.81 674.52"><defs><style>.cls-1{fill:#f8bd00;}.cls-2{fill:#001830;}.cls-3{fill:#183664;}.cls-11,.cls-4{fill:#fff;}.cls-5{fill:#f19500;}.cls-10,.cls-6{fill:none;}.cls-6{stroke:#fff;}.cls-10,.cls-11,.cls-6{stroke-miterlimit:10;}.cls-11,.cls-6{stroke-width:2px;}.cls-7{fill:#93ade3;}.cls-8{fill:#ffe5a4;}.cls-9{fill:#c36700;}.cls-10{stroke:url(#Безымянный_градиент_32);}.cls-11{stroke:#c36700;}</style><linearGradient id="Безымянный_градиент_32" x1="242.59" y1="554.67" x2="242.59" y2="285.19" gradientUnits="userSpaceOnUse"><stop offset="0" stop-color="#ffce3f"/><stop offset="0.65" stop-color="#fdbc37"/><stop offset="0.99" stop-color="#fcb031"/></linearGradient></defs><g id="Слой_4" data-name="Слой 4"><path class="cls-1" d="M371.2,201.26c-1.84,3.85-5.66,9.09-14.88,13.52a112,112,0,0,1-21.68,7.27c-38.22,9.19-91.9,8.95-91.9,8.95s-55.89-.25-93.28-8.64c-12.67-2.85-23.21-6.62-28.74-11.64A30.77,30.77,0,0,1,114,201.6c-3.61-8.1-2-16.18-.68-22,5-21.41,14.87-44.44,18.08-51.79h.4c11.75-35.89,43.36-63.77,83-72.65a124.84,124.84,0,0,1,58.08.9c37.9,9.76,67.93,37,79.28,71.83H354a297,297,0,0,1,17.57,50.36C373.28,185.38,374.93,193.41,371.2,201.26Z"/><path class="cls-2" d="M356.86,197.61c-1.64,3.29-5,7.78-13.22,11.57a102.48,102.48,0,0,1-19.27,6.22c-33.95,7.87-81.65,7.66-81.65,7.66s-48.11-.2-81.3-7.07h-.06l-1.51-.32c-11.26-2.43-20.63-5.66-25.54-10a26.42,26.42,0,0,1-6-7.8c-3.21-6.94-1.82-13.85-.61-18.81,4.47-18.33,13.21-38,16.07-44.33h.35C156.85,97.29,195.86,70,242,70a115,115,0,0,1,17.14,1.28c38.48,5.79,69.67,30.77,80.76,63.53h1.64a247.51,247.51,0,0,1,15.61,43.1C358.71,184,360.17,190.89,356.86,197.61Z"/><path class="cls-3" d="M349.08,196.15c-1.63,3.3-5,7.78-13.22,11.58A102.37,102.37,0,0,1,316.6,214c-34,7.86-81.65,7.66-81.65,7.66s-41.1-.18-73.53-5.62h-.06l-1.51-.32c-11.26-2.43-20.63-5.66-25.54-10a26.42,26.42,0,0,1-6-7.8c-3.21-6.94-1.82-13.85-.61-18.81,4.47-18.33,13.21-38,16.07-44.33h.35C156.85,97.29,195.86,70,242,70a115,115,0,0,1,17.14,1.28c34.87,7.79,62.65,31.55,73,62.08h1.65a248.35,248.35,0,0,1,15.61,43.1C350.93,182.56,352.4,189.44,349.08,196.15Z"/><path class="cls-4" d="M355.49,150.65a51.15,51.15,0,0,1-9.33,29.54,51.7,51.7,0,0,1-3.79,3.9l0,0a51.45,51.45,0,0,1-72.95-70.72,53.46,53.46,0,0,1,3.78-3.9l.31-.23a51.45,51.45,0,0,1,82,41.39Z"/><path class="cls-4" d="M220.41,199.73a35.8,35.8,0,0,0,10.52,6.45,29.53,29.53,0,0,0,5.79,1.63c1,.22,2,.28,3,.42s2,.14,3,.07a30.77,30.77,0,0,0,11.7-2.41,36.76,36.76,0,0,0,10.39-6.66,24.8,24.8,0,0,1-9.37,8.77,26.43,26.43,0,0,1-6.12,2.44,28.73,28.73,0,0,1-6.57.86,27,27,0,0,1-12.76-3A24.27,24.27,0,0,1,220.41,199.73Z"/><path class="cls-5" d="M271.64,56.08A30.85,30.85,0,0,0,261.5,77.89a12,12,0,0,1-12,12H234.79a12,12,0,0,1-12-12,49.2,49.2,0,0,0-4.73-15.39,48.48,48.48,0,0,0-4.5-7.32,122.4,122.4,0,0,1,18.13-2.66q4.49-.33,9.05-.33a125,125,0,0,1,12.76.65A121.1,121.1,0,0,1,271.64,56.08Z"/><path class="cls-6" d="M245,17.45a13.08,13.08,0,0,0-3.16,7.73c-.1,2.74.92,4.34.88,8.24a22.53,22.53,0,0,1-.63,5.07"/><path class="cls-7" d="M245.53,38.24v6.85H240V38.24A1.25,1.25,0,0,1,241.22,37h3A1.26,1.26,0,0,1,245.53,38.24Z"/><path class="cls-3" d="M254.4,45.37v7.47a130.83,130.83,0,0,0-13.79-.73c-3.29,0-6.55.13-9.78.37V45.37A1.17,1.17,0,0,1,232,44.2h21.23A1.17,1.17,0,0,1,254.4,45.37Z"/><path class="cls-5" d="M257,10.59a9.11,9.11,0,1,1-9.11-9.11A9.11,9.11,0,0,1,257,10.59Z"/><path class="cls-1" d="M254.8,12.9a9.12,9.12,0,0,1-12.38,3.6,9,9,0,0,1-3.09-2.79,9.11,9.11,0,0,1,16-8.37A9.1,9.1,0,0,1,254.8,12.9Z"/><path class="cls-7" d="M361.27,146.41a52,52,0,0,1-9.49,30,50.91,50.91,0,0,1-7.12,8.19,52.3,52.3,0,1,1,16.61-38.22Z"/><path class="cls-4" d="M359.55,147.27a51.15,51.15,0,0,1-9.33,29.54,51.58,51.58,0,0,1-7.85,7.28l0,0a51.45,51.45,0,0,1-72.95-70.72,53.46,53.46,0,0,1,3.78-3.9,52,52,0,0,1,4.37-3.61,51.45,51.45,0,0,1,82,41.39Z"/><circle class="cls-2" cx="308.45" cy="150.36" r="30.61"/><circle class="cls-4" cx="315.18" cy="141.59" r="8.73"/><path class="cls-7" d="M228.08,146.41A52.31,52.31,0,1,1,175.77,94.1,52.06,52.06,0,0,1,228.08,146.41Z"/><path class="cls-4" d="M226.36,147.27A51.15,51.15,0,0,1,217,176.81a51.58,51.58,0,0,1-7.85,7.28l0,0a51.45,51.45,0,0,1-73-70.72,53.46,53.46,0,0,1,3.78-3.9,52,52,0,0,1,4.37-3.61,51.45,51.45,0,0,1,82,41.39Z"/><circle class="cls-2" cx="175.26" cy="150.36" r="30.61"/><circle class="cls-4" cx="180.98" cy="141.54" r="8.73"/><circle class="cls-8" cx="249.52" cy="7.29" r="4.11"/><rect class="cls-9" x="234.82" y="234.76" width="15.55" height="27.83" rx="5.68"/><rect class="cls-9" x="231.33" y="538.45" width="23.58" height="51.97" rx="9.56"/><path class="cls-7" d="M263.43,604.24a58.25,58.25,0,0,1-40.61-.38c.43.62,8.41,11.69,22,10.85C256.22,614,262.59,605.41,263.43,604.24Z"/><path class="cls-7" d="M269.82,627.18a64.49,64.49,0,0,1-53.4-.5c.57.81,11.07,15.37,28.91,14.26C260.35,640,268.72,628.72,269.82,627.18Z"/><path class="cls-7" d="M283.41,653.44a93.93,93.93,0,0,1-80.58-1c8.39,12.26,25.32,19.73,43.08,19C270.45,670.46,282.69,654.43,283.41,653.44Z"/><path class="cls-10" d="M263.58,339.8c0,.3,0,.6,0,.9h0q-2.16,95.13-4.33,190.28c.05,1.41.27,10.2-5.28,16.94a16.45,16.45,0,0,1-11.37,6.25,16.63,16.63,0,0,1-10.28-5.54c-4.95-5.73-5.5-14.21-5.69-18-.8-15.2-2.95-88.94-5-190h0q0-.45,0-.9V303.54c0-9.86,6.45-17.85,14.4-17.85h13.19c7.95,0,14.39,8,14.39,17.85Z"/><path class="cls-5" d="M272.29,269.59v41.23q0,.51,0,1h0q-3,108.17-6.1,216.34c.07,1.6.38,11.59-7.44,19.26a25.46,25.46,0,0,1-16,7.1c-4.16-.53-9.87-2-14.48-6.29-5.45-5.09-7.11-12.09-7.71-16.94a.17.17,0,0,1,0-.07c-.16-1.33-.24-2.49-.3-3.4-1.13-17.28-4.16-101.12-7.08-216h0q0-.51,0-1V269.59a20.28,20.28,0,0,1,20.28-20.29H252A20.28,20.28,0,0,1,272.29,269.59Z"/><path class="cls-1" d="M272.29,310.82q0,.51,0,1h0q-3,108.17-6.1,216.34c.07,1.6.38,11.59-7.44,19.26a25.46,25.46,0,0,1-16,7.1c-4.16-.53-9.87-2-14.48-6.29-5.45-5.09-7.11-12.09-7.71-16.94a.17.17,0,0,1,0-.07c-1.34-26.83-4.07-105.35-6.71-209.26h0q0-.51,0-1V279.73a20.28,20.28,0,0,1,20.28-20.29h18.59a20.28,20.28,0,0,1,19.61,15.11Z"/><path class="cls-8" d="M265.86,336.06c0,.31,0,.62,0,.91h0q-2.39,97.36-4.77,194.72c.05,1.44.29,10.43-5.83,17.34a18.57,18.57,0,0,1-12.54,6.38c-.46-.06-.94-.14-1.45-.25a18.41,18.41,0,0,1-9.89-5.4c-5.46-5.87-6.07-14.55-6.28-18.37-.88-15.56-3.25-91-5.55-194.42h0c0-.29,0-.6,0-.91V299c0-10.09,7.12-18.26,15.89-18.26H250c8.77,0,15.87,8.17,15.87,18.26Z"/><path class="cls-5" d="M263.7,341.18c0,.3,0,.6,0,.89h0q-2.16,95.15-4.33,190.29c.05,1.4.27,10.19-5.28,16.94a16.4,16.4,0,0,1-11.37,6.24c-.42-.06-.85-.14-1.31-.25a16.29,16.29,0,0,1-9-5.28c-4.95-5.73-5.5-14.21-5.69-18-.8-15.2-2.95-88.94-5-190h0c0-.29,0-.59,0-.89V304.91c0-9.86,6.45-17.84,14.4-17.84h13.19c7.95,0,14.39,8,14.39,17.84Z"/><circle class="cls-11" cx="242.71" cy="310.54" r="13.69"/><polygon class="cls-3" points="237.37 318.91 237.61 310.54 237.84 302.16 243.88 306.52 249.91 310.88 243.64 314.9 237.37 318.91"/><ellipse class="cls-1" cx="326.19" cy="367.98" rx="29.72" ry="93.78" transform="translate(-115.02 150.85) rotate(-22.24)"/><ellipse class="cls-9" cx="328.59" cy="366.72" rx="22.31" ry="84.96" transform="translate(-114.36 151.66) rotate(-22.24)"/><ellipse class="cls-4" cx="326.92" cy="367.7" rx="20.39" ry="83.71" transform="translate(-114.86 151.1) rotate(-22.24)"/><path class="cls-2" d="M336.87,387.25a2.53,2.53,0,0,1-.57.34c-3.11,1.27-8.72-5.23-12.52-14.54s-4.37-17.88-1.26-19.16a2.5,2.5,0,0,1,1.67,0c3.2.92,7.66,6.76,10.86,14.57C338.61,377.13,339.33,385.2,336.87,387.25Z"/><path class="cls-3" d="M336.25,387.06c-3.09-.9-7.41-6.64-10.48-14.33-3.43-8.57-4.08-16.53-1.68-18.56,3.1.88,7.42,6.63,10.49,14.33C338,377.07,338.66,385,336.25,387.06Z"/><path class="cls-7" d="M324.34,331.44a102,102,0,0,0-8.2-12.17,45.7,45.7,0,0,0-4.91-5.29,15.83,15.83,0,0,0-5.8-3.65,3.17,3.17,0,0,0-2.74.22,5.71,5.71,0,0,0-1.84,2.49,23.07,23.07,0,0,0-1.6,6.87,82.38,82.38,0,0,0,.14,14.64,51.75,51.75,0,0,1-1.69-14.75,22.47,22.47,0,0,1,1.41-7.51,7.42,7.42,0,0,1,2.49-3.36,7,7,0,0,1,1.06-.53,4.53,4.53,0,0,1,1.14-.23,6.14,6.14,0,0,1,2.16.23,12.6,12.6,0,0,1,3.58,1.77,22.62,22.62,0,0,1,3,2.43,40.68,40.68,0,0,1,4.87,5.73A58.92,58.92,0,0,1,324.34,331.44Z"/><path class="cls-7" d="M325.82,345.68c-1.64-1.61-3.17-3.26-4.72-4.88s-3.09-3.23-4.73-4.66a19.55,19.55,0,0,0-2.53-2,6.21,6.21,0,0,0-2.68-1.13,2.48,2.48,0,0,0-2.31,1.15,12.55,12.55,0,0,0-1.49,2.95,8.42,8.42,0,0,1,.65-3.45,4.33,4.33,0,0,1,1.19-1.54,3.54,3.54,0,0,1,2-.67,7,7,0,0,1,3.64,1.08,18,18,0,0,1,2.87,2.1,36.79,36.79,0,0,1,8.13,11Z"/><path class="cls-7" d="M355.92,414.4A39,39,0,0,1,358,423a28.66,28.66,0,0,1-.17,9,11.2,11.2,0,0,1-1.79,4.4,6.08,6.08,0,0,1-.89.94l-.52.41c-.2.12-.41.21-.61.32a4,4,0,0,1-2.62.26,9.78,9.78,0,0,1-4.17-2,19.16,19.16,0,0,1-3.15-3.15,38.35,38.35,0,0,0,3.68,2.33,10.24,10.24,0,0,0,3.85,1.33c2.5.32,3.78-2.55,4.27-5.2a25,25,0,0,0,.5-4.18c.11-1.42.07-2.85.07-4.29C356.39,420.24,356.14,417.35,355.92,414.4Z"/><path class="cls-7" d="M348.87,419a7.61,7.61,0,0,1-.57,2.72,5.25,5.25,0,0,1-1.82,2.37,4.49,4.49,0,0,1-3.17.6,7.39,7.39,0,0,1-2.8-1.09,12.51,12.51,0,0,1-4-4,14.2,14.2,0,0,1-2-5.12,52.58,52.58,0,0,0,3.26,4.18,17.5,17.5,0,0,0,3.75,3.28c1.34.85,2.92,1.36,4.14.86S348,420.55,348.87,419Z"/><path class="cls-9" d="M331.28,461.35c-.49,1.81.34,4.22,1.84,4.8,2.09.82,4.87-2.18,6-4a12,12,0,0,0,1.51-8.56c-.79.57-2.57,1.86-4.93,3.54C332.54,459.43,331.62,460.05,331.28,461.35Z"/><path class="cls-9" d="M363.15,469.37c-.7,2.81-2.92,5.78-4.31,5.44s-1.8-3.94-1.49-6.42a12.81,12.81,0,0,1,4-7.52C362,461.85,364.16,465.34,363.15,469.37Z"/><path class="cls-9" d="M375.12,465.9c.08,2.62-.81,6.22-2.41,6.46-1.29.19-2.68-1.86-3.28-3.17-2.13-4.7,1.47-10.19,2.12-11.16A12.29,12.29,0,0,1,375.12,465.9Z"/><path class="cls-9" d="M384.65,454.57c1,2.15,1.57,5.65.09,6.62-1.17.77-3.23-.32-4.19-1-4.23-3.05-3.42-10.12-3.29-11.14C378.5,449.36,382.79,450.65,384.65,454.57Z"/><ellipse class="cls-1" cx="113.42" cy="279.2" rx="29.72" ry="93.78" transform="translate(-187.85 272.07) rotate(-66.53)"/><ellipse class="cls-9" cx="112.59" cy="281.78" rx="22.31" ry="84.96" transform="translate(-190.72 272.85) rotate(-66.53)"/><ellipse class="cls-4" cx="113.1" cy="279.91" rx="20.39" ry="83.71" transform="translate(-188.7 272.19) rotate(-66.53)"/><path class="cls-2" d="M92.32,272.86a2.26,2.26,0,0,1,.17-.63c1.33-3.09,9.89-2.35,19.12,1.66s15.6,9.75,14.27,12.83a2.49,2.49,0,0,1-1.17,1.19c-2.93,1.58-10.2.52-17.95-2.85C98.14,281.32,92,276.05,92.32,272.86Z"/><path class="cls-3" d="M92.89,272.57c2.84-1.52,10-.42,17.52,2.93,8.43,3.75,14.46,9,14.16,12.12-2.84,1.53-9.94.43-17.52-2.93C98.62,280.94,92.59,275.71,92.89,272.57Z"/><path class="cls-7" d="M140.26,304.06a101.52,101.52,0,0,0,14.36,3,47.32,47.32,0,0,0,7.22.35,15.77,15.77,0,0,0,6.7-1.43,3.18,3.18,0,0,0,1.8-2.08,5.73,5.73,0,0,0-.42-3.06,22.92,22.92,0,0,0-3.65-6,82.32,82.32,0,0,0-10.33-10.38,51.77,51.77,0,0,1,11.52,9.38,22.49,22.49,0,0,1,4.23,6.36,5.88,5.88,0,0,1,.18,5.26,5.13,5.13,0,0,1-.65,1,6.36,6.36,0,0,1-1.72,1.34,12.64,12.64,0,0,1-3.79,1.23,22.62,22.62,0,0,1-3.83.34,40.7,40.7,0,0,1-7.49-.7A59.16,59.16,0,0,1,140.26,304.06Z"/><path class="cls-7" d="M129.26,294.9c2.29,0,4.54.12,6.78.2s4.47.15,6.65,0a19.47,19.47,0,0,0,3.19-.34,6.4,6.4,0,0,0,2.71-1.06,2.48,2.48,0,0,0,.84-2.44,12.16,12.16,0,0,0-1-3.15,8.34,8.34,0,0,1,1.94,2.92,4.13,4.13,0,0,1,.22,1.94,3.56,3.56,0,0,1-.94,1.86,7,7,0,0,1-3.36,1.77,19.62,19.62,0,0,1-3.53.5,36.56,36.56,0,0,1-13.52-2.23Z"/><path class="cls-7" d="M59.72,266.73A38.23,38.23,0,0,1,52.21,262,28.57,28.57,0,0,1,46,255.48a11.33,11.33,0,0,1-1.79-4.4,6.27,6.27,0,0,1,0-1.3l.09-.66c.06-.22.14-.43.22-.65a4.07,4.07,0,0,1,1.68-2A9.94,9.94,0,0,1,50.64,245a19.55,19.55,0,0,1,4.46.05,38.43,38.43,0,0,0-4.27.91,10.35,10.35,0,0,0-3.68,1.73c-2,1.52-.92,4.47.58,6.71a25.23,25.23,0,0,0,2.55,3.34c.91,1.09,1.95,2.09,3,3.12C55.3,262.88,57.5,264.78,59.72,266.73Z"/><path class="cls-7" d="M61.58,258.55a7.76,7.76,0,0,1-1.49-2.35,5.35,5.35,0,0,1-.35-3,4.44,4.44,0,0,1,1.85-2.63,7.45,7.45,0,0,1,2.77-1.19,12.7,12.7,0,0,1,5.66.13,14.09,14.09,0,0,1,5,2.26,52.71,52.71,0,0,0-5.25-.71,17.79,17.79,0,0,0-5,.27c-1.55.33-3,1.06-3.56,2.28S61.08,256.82,61.58,258.55Z"/><path class="cls-9" d="M44.58,215.92c-.92-1.63-3.2-2.78-4.68-2.15-2.07.88-2,5-1.54,7.07a12,12,0,0,0,4.9,7.17c.16-1,.54-3.12,1.06-6C45,218.18,45.24,217.09,44.58,215.92Z"/><path class="cls-9" d="M16.16,232.44c-1.46-2.5-1.95-6.18-.71-6.91s4,1.57,5.54,3.56a12.78,12.78,0,0,1,2.37,8.19C22.22,237,18.24,236,16.16,232.44Z"/><path class="cls-9" d="M10,243.28c-1.88-1.82-3.76-5-2.78-6.31.79-1,3.22-.54,4.55,0,4.82,1.88,6.07,8.32,6.28,9.47A12.34,12.34,0,0,1,10,243.28Z"/><path class="cls-9" d="M11.11,258.05c-2.24-.83-5.07-3-4.69-4.68.3-1.37,2.53-2,3.71-2.2,5.16-.77,9.52,4.86,10.13,5.68C19.15,257.48,15.17,259.55,11.11,258.05Z"/></g></svg>